G04 #@! TF.FileFunction,Copper,L2,Bot,Signal*
%FSLAX46Y46*%
G04 Gerber Fmt 4.6, Leading zero omitted, Abs format (unit mm)*
G04 Created by KiCad (PCBNEW 4.0.7) date 07/17/19 22:20:44*
%MOMM*%
%LPD*%
G01*
G04 APERTURE LIST*
%ADD10C,0.100000*%
%ADD11C,0.300000*%
%ADD12R,1.700000X1.700000*%
%ADD13O,1.700000X1.700000*%
%ADD14R,1.600000X1.600000*%
%ADD15C,1.600000*%
%ADD16R,1.700000X2.500000*%
%ADD17O,1.700000X2.500000*%
%ADD18R,1.800000X1.800000*%
%ADD19C,1.800000*%
%ADD20C,1.520000*%
%ADD21C,3.000000*%
%ADD22C,0.900000*%
%ADD23C,1.200000*%
%ADD24C,0.800000*%
%ADD25C,0.500000*%
G04 APERTURE END LIST*
D10*
D11*
X133210928Y-162706857D02*
X132996642Y-162778286D01*
X132925214Y-162849714D01*
X132853785Y-162992571D01*
X132853785Y-163206857D01*
X132925214Y-163349714D01*
X132996642Y-163421143D01*
X133139500Y-163492571D01*
X133710928Y-163492571D01*
X133710928Y-161992571D01*
X133210928Y-161992571D01*
X133068071Y-162064000D01*
X132996642Y-162135429D01*
X132925214Y-162278286D01*
X132925214Y-162421143D01*
X132996642Y-162564000D01*
X133068071Y-162635429D01*
X133210928Y-162706857D01*
X133710928Y-162706857D01*
X132425214Y-161992571D02*
X131568071Y-161992571D01*
X131996642Y-163492571D02*
X131996642Y-161992571D01*
X131068071Y-163492571D02*
X131068071Y-161992571D01*
X130568071Y-163064000D01*
X130068071Y-161992571D01*
X130068071Y-163492571D01*
D12*
X105283000Y-116332000D03*
D13*
X107823000Y-116332000D03*
X105283000Y-118872000D03*
X107823000Y-118872000D03*
X105283000Y-121412000D03*
X107823000Y-121412000D03*
X105283000Y-123952000D03*
X107823000Y-123952000D03*
D12*
X139573000Y-127381000D03*
D13*
X139573000Y-129921000D03*
X139573000Y-132461000D03*
X139573000Y-135001000D03*
X139573000Y-137541000D03*
D14*
X153924000Y-142494000D03*
D15*
X156424000Y-142494000D03*
D14*
X151320500Y-120904000D03*
D15*
X151320500Y-122904000D03*
D12*
X145923000Y-117348000D03*
D13*
X143383000Y-117348000D03*
X140843000Y-117348000D03*
X138303000Y-117348000D03*
D12*
X123825000Y-110744000D03*
D13*
X126365000Y-110744000D03*
X128905000Y-110744000D03*
X131445000Y-110744000D03*
D12*
X112268000Y-110236000D03*
D13*
X114808000Y-110236000D03*
D12*
X122555000Y-159956500D03*
D13*
X125095000Y-159956500D03*
D16*
X152527000Y-133477000D03*
D17*
X155067000Y-133477000D03*
X157607000Y-133477000D03*
D15*
X150741000Y-155567000D03*
X150741000Y-160567000D03*
X152741000Y-159067000D03*
X136707500Y-155567000D03*
X136707500Y-160567000D03*
X138707500Y-159067000D03*
D12*
X158369000Y-154749500D03*
D18*
X126238000Y-149225000D03*
D19*
X128778000Y-149225000D03*
D18*
X132334000Y-149225000D03*
D19*
X134874000Y-149225000D03*
D18*
X138430000Y-149225000D03*
D19*
X140970000Y-149225000D03*
D20*
X104536500Y-154535500D03*
X102536500Y-154535500D03*
X106536500Y-154535500D03*
X101536500Y-157035500D03*
X103536500Y-157035500D03*
X105536500Y-157035500D03*
D21*
X110036500Y-159035500D03*
X97976500Y-159065500D03*
D22*
X143446500Y-122555000D03*
X99949000Y-151066500D03*
X145796000Y-142557500D03*
D23*
X119380000Y-124206000D03*
D22*
X123825000Y-120269000D03*
X122428000Y-121031000D03*
D23*
X110109000Y-137033000D03*
X86487000Y-139954000D03*
D24*
X105536500Y-157035500D02*
X107759500Y-157035500D01*
X118364000Y-159956500D02*
X122555000Y-159956500D01*
X114617500Y-156210000D02*
X118364000Y-159956500D01*
X108585000Y-156210000D02*
X114617500Y-156210000D01*
X107759500Y-157035500D02*
X108585000Y-156210000D01*
X150749000Y-162496500D02*
X150749000Y-160575000D01*
X150749000Y-160575000D02*
X150741000Y-160567000D01*
X136707500Y-160567000D02*
X136707500Y-161853500D01*
X158369000Y-159258000D02*
X158369000Y-154749500D01*
X155130500Y-162496500D02*
X158369000Y-159258000D01*
X137350500Y-162496500D02*
X150749000Y-162496500D01*
X150749000Y-162496500D02*
X155130500Y-162496500D01*
X136707500Y-161853500D02*
X137350500Y-162496500D01*
X150971500Y-122555000D02*
X146431000Y-122555000D01*
X144653000Y-122555000D02*
X143446500Y-122555000D01*
X146431000Y-122555000D02*
X144653000Y-122555000D01*
X150971500Y-122555000D02*
X151320500Y-122904000D01*
X122555000Y-159956500D02*
X122555000Y-156337000D01*
X122555000Y-156337000D02*
X122872500Y-156019500D01*
X136652000Y-153543000D02*
X135445500Y-153543000D01*
X135445500Y-153543000D02*
X132524500Y-153543000D01*
X132524500Y-153543000D02*
X130048000Y-156019500D01*
X130048000Y-156019500D02*
X122872500Y-156019500D01*
X145669000Y-153543000D02*
X136652000Y-153543000D01*
X136525000Y-122555000D02*
X111506000Y-122555000D01*
X143446500Y-122555000D02*
X142875000Y-122555000D01*
X107823000Y-123952000D02*
X110109000Y-123952000D01*
X111506000Y-122555000D02*
X110109000Y-123952000D01*
X142875000Y-122555000D02*
X136525000Y-122555000D01*
X146558000Y-153543000D02*
X145669000Y-153543000D01*
X156424000Y-146217000D02*
X156424000Y-142494000D01*
X149098000Y-153543000D02*
X156424000Y-146217000D01*
X146431000Y-153543000D02*
X146558000Y-153543000D01*
X146558000Y-153543000D02*
X149098000Y-153543000D01*
X103536500Y-157035500D02*
X103536500Y-158020000D01*
X99949000Y-157861000D02*
X99949000Y-151066500D01*
X100901500Y-158813500D02*
X99949000Y-157861000D01*
X102743000Y-158813500D02*
X100901500Y-158813500D01*
X103536500Y-158020000D02*
X102743000Y-158813500D01*
X139573000Y-127381000D02*
X143256000Y-127381000D01*
X143256000Y-127381000D02*
X145796000Y-129921000D01*
X146177000Y-120713500D02*
X151130000Y-120713500D01*
X151130000Y-120713500D02*
X151320500Y-120904000D01*
X145796000Y-142557500D02*
X145796000Y-129921000D01*
D25*
X123253500Y-117157500D02*
X122936000Y-117475000D01*
X123825000Y-110744000D02*
X123825000Y-116586000D01*
X123825000Y-116586000D02*
X123253500Y-117157500D01*
D24*
X146177000Y-120777000D02*
X146177000Y-120713500D01*
X146177000Y-120713500D02*
X146177000Y-117602000D01*
X146177000Y-117602000D02*
X145923000Y-117348000D01*
X109474000Y-116332000D02*
X110617000Y-117475000D01*
X110617000Y-117475000D02*
X122936000Y-117475000D01*
X122936000Y-117475000D02*
X123190000Y-117475000D01*
X123190000Y-117475000D02*
X126492000Y-120777000D01*
X126492000Y-120777000D02*
X146177000Y-120777000D01*
X107823000Y-116332000D02*
X109474000Y-116332000D01*
X157607000Y-131572000D02*
X157607000Y-133477000D01*
X145796000Y-129921000D02*
X155956000Y-129921000D01*
X155956000Y-129921000D02*
X157607000Y-131572000D01*
D25*
X119380000Y-124206000D02*
X130937000Y-124206000D01*
X139192000Y-132461000D02*
X130937000Y-124206000D01*
X139192000Y-132461000D02*
X139573000Y-132461000D01*
X107696000Y-118745000D02*
X107823000Y-118872000D01*
X122301000Y-118745000D02*
X107696000Y-118745000D01*
X123825000Y-120269000D02*
X122301000Y-118745000D01*
X109728000Y-121412000D02*
X107823000Y-121412000D01*
X110109000Y-121031000D02*
X109728000Y-121412000D01*
X111887000Y-121031000D02*
X110109000Y-121031000D01*
X122428000Y-121031000D02*
X111887000Y-121031000D01*
D24*
X150741000Y-155567000D02*
X136707500Y-155567000D01*
D25*
X107188000Y-139954000D02*
X86487000Y-139954000D01*
X110109000Y-137033000D02*
X107188000Y-139954000D01*
M02*
