G04 #@! TF.FileFunction,Legend,Top*
%FSLAX46Y46*%
G04 Gerber Fmt 4.6, Leading zero omitted, Abs format (unit mm)*
G04 Created by KiCad (PCBNEW 4.0.7) date 07/17/19 22:20:44*
%MOMM*%
%LPD*%
G01*
G04 APERTURE LIST*
%ADD10C,0.100000*%
%ADD11C,0.300000*%
%ADD12C,1.000000*%
%ADD13C,0.152400*%
%ADD14C,0.120000*%
%ADD15C,0.150000*%
%ADD16C,0.254000*%
G04 APERTURE END LIST*
D10*
D11*
X142161643Y-107758571D02*
X142518786Y-109258571D01*
X142804500Y-108187143D01*
X143090214Y-109258571D01*
X143447357Y-107758571D01*
X144590214Y-109187143D02*
X144447357Y-109258571D01*
X144161643Y-109258571D01*
X144018786Y-109187143D01*
X143947357Y-109044286D01*
X143947357Y-108472857D01*
X144018786Y-108330000D01*
X144161643Y-108258571D01*
X144447357Y-108258571D01*
X144590214Y-108330000D01*
X144661643Y-108472857D01*
X144661643Y-108615714D01*
X143947357Y-108758571D01*
X145947357Y-109258571D02*
X145947357Y-108472857D01*
X145875928Y-108330000D01*
X145733071Y-108258571D01*
X145447357Y-108258571D01*
X145304500Y-108330000D01*
X145947357Y-109187143D02*
X145804500Y-109258571D01*
X145447357Y-109258571D01*
X145304500Y-109187143D01*
X145233071Y-109044286D01*
X145233071Y-108901429D01*
X145304500Y-108758571D01*
X145447357Y-108687143D01*
X145804500Y-108687143D01*
X145947357Y-108615714D01*
X146447357Y-108258571D02*
X147018786Y-108258571D01*
X146661643Y-107758571D02*
X146661643Y-109044286D01*
X146733071Y-109187143D01*
X146875929Y-109258571D01*
X147018786Y-109258571D01*
X147518786Y-109258571D02*
X147518786Y-107758571D01*
X148161643Y-109258571D02*
X148161643Y-108472857D01*
X148090214Y-108330000D01*
X147947357Y-108258571D01*
X147733072Y-108258571D01*
X147590214Y-108330000D01*
X147518786Y-108401429D01*
X149447357Y-109187143D02*
X149304500Y-109258571D01*
X149018786Y-109258571D01*
X148875929Y-109187143D01*
X148804500Y-109044286D01*
X148804500Y-108472857D01*
X148875929Y-108330000D01*
X149018786Y-108258571D01*
X149304500Y-108258571D01*
X149447357Y-108330000D01*
X149518786Y-108472857D01*
X149518786Y-108615714D01*
X148804500Y-108758571D01*
X150161643Y-109258571D02*
X150161643Y-108258571D01*
X150161643Y-108544286D02*
X150233071Y-108401429D01*
X150304500Y-108330000D01*
X150447357Y-108258571D01*
X150590214Y-108258571D01*
X151018785Y-109187143D02*
X151233071Y-109258571D01*
X151590214Y-109258571D01*
X151733071Y-109187143D01*
X151804500Y-109115714D01*
X151875928Y-108972857D01*
X151875928Y-108830000D01*
X151804500Y-108687143D01*
X151733071Y-108615714D01*
X151590214Y-108544286D01*
X151304500Y-108472857D01*
X151161642Y-108401429D01*
X151090214Y-108330000D01*
X151018785Y-108187143D01*
X151018785Y-108044286D01*
X151090214Y-107901429D01*
X151161642Y-107830000D01*
X151304500Y-107758571D01*
X151661642Y-107758571D01*
X151875928Y-107830000D01*
X152304499Y-108258571D02*
X152875928Y-108258571D01*
X152518785Y-107758571D02*
X152518785Y-109044286D01*
X152590213Y-109187143D01*
X152733071Y-109258571D01*
X152875928Y-109258571D01*
X154018785Y-109258571D02*
X154018785Y-108472857D01*
X153947356Y-108330000D01*
X153804499Y-108258571D01*
X153518785Y-108258571D01*
X153375928Y-108330000D01*
X154018785Y-109187143D02*
X153875928Y-109258571D01*
X153518785Y-109258571D01*
X153375928Y-109187143D01*
X153304499Y-109044286D01*
X153304499Y-108901429D01*
X153375928Y-108758571D01*
X153518785Y-108687143D01*
X153875928Y-108687143D01*
X154018785Y-108615714D01*
X154518785Y-108258571D02*
X155090214Y-108258571D01*
X154733071Y-107758571D02*
X154733071Y-109044286D01*
X154804499Y-109187143D01*
X154947357Y-109258571D01*
X155090214Y-109258571D01*
X155590214Y-109258571D02*
X155590214Y-108258571D01*
X155590214Y-107758571D02*
X155518785Y-107830000D01*
X155590214Y-107901429D01*
X155661642Y-107830000D01*
X155590214Y-107758571D01*
X155590214Y-107901429D01*
X156518786Y-109258571D02*
X156375928Y-109187143D01*
X156304500Y-109115714D01*
X156233071Y-108972857D01*
X156233071Y-108544286D01*
X156304500Y-108401429D01*
X156375928Y-108330000D01*
X156518786Y-108258571D01*
X156733071Y-108258571D01*
X156875928Y-108330000D01*
X156947357Y-108401429D01*
X157018786Y-108544286D01*
X157018786Y-108972857D01*
X156947357Y-109115714D01*
X156875928Y-109187143D01*
X156733071Y-109258571D01*
X156518786Y-109258571D01*
X157661643Y-108258571D02*
X157661643Y-109258571D01*
X157661643Y-108401429D02*
X157733071Y-108330000D01*
X157875929Y-108258571D01*
X158090214Y-108258571D01*
X158233071Y-108330000D01*
X158304500Y-108472857D01*
X158304500Y-109258571D01*
X143304502Y-110808571D02*
X143661645Y-111808571D01*
X144018787Y-110808571D01*
X144590216Y-111665714D02*
X144661644Y-111737143D01*
X144590216Y-111808571D01*
X144518787Y-111737143D01*
X144590216Y-111665714D01*
X144590216Y-111808571D01*
X146090216Y-111808571D02*
X145233073Y-111808571D01*
X145661645Y-111808571D02*
X145661645Y-110308571D01*
X145518788Y-110522857D01*
X145375930Y-110665714D01*
X145233073Y-110737143D01*
X148661644Y-111808571D02*
X147804501Y-111808571D01*
X148233073Y-111808571D02*
X148233073Y-110308571D01*
X148090216Y-110522857D01*
X147947358Y-110665714D01*
X147804501Y-110737143D01*
X149161644Y-110308571D02*
X150161644Y-110308571D01*
X149518787Y-111808571D01*
X150733072Y-111665714D02*
X150804500Y-111737143D01*
X150733072Y-111808571D01*
X150661643Y-111737143D01*
X150733072Y-111665714D01*
X150733072Y-111808571D01*
X151733072Y-110308571D02*
X151875929Y-110308571D01*
X152018786Y-110380000D01*
X152090215Y-110451429D01*
X152161644Y-110594286D01*
X152233072Y-110880000D01*
X152233072Y-111237143D01*
X152161644Y-111522857D01*
X152090215Y-111665714D01*
X152018786Y-111737143D01*
X151875929Y-111808571D01*
X151733072Y-111808571D01*
X151590215Y-111737143D01*
X151518786Y-111665714D01*
X151447358Y-111522857D01*
X151375929Y-111237143D01*
X151375929Y-110880000D01*
X151447358Y-110594286D01*
X151518786Y-110451429D01*
X151590215Y-110380000D01*
X151733072Y-110308571D01*
X152733072Y-110308571D02*
X153733072Y-110308571D01*
X153090215Y-111808571D01*
X154304500Y-111665714D02*
X154375928Y-111737143D01*
X154304500Y-111808571D01*
X154233071Y-111737143D01*
X154304500Y-111665714D01*
X154304500Y-111808571D01*
X155804500Y-111808571D02*
X154947357Y-111808571D01*
X155375929Y-111808571D02*
X155375929Y-110308571D01*
X155233072Y-110522857D01*
X155090214Y-110665714D01*
X154947357Y-110737143D01*
X156518785Y-111808571D02*
X156804500Y-111808571D01*
X156947357Y-111737143D01*
X157018785Y-111665714D01*
X157161643Y-111451429D01*
X157233071Y-111165714D01*
X157233071Y-110594286D01*
X157161643Y-110451429D01*
X157090214Y-110380000D01*
X156947357Y-110308571D01*
X156661643Y-110308571D01*
X156518785Y-110380000D01*
X156447357Y-110451429D01*
X156375928Y-110594286D01*
X156375928Y-110951429D01*
X156447357Y-111094286D01*
X156518785Y-111165714D01*
X156661643Y-111237143D01*
X156947357Y-111237143D01*
X157090214Y-111165714D01*
X157161643Y-111094286D01*
X157233071Y-110951429D01*
X83602000Y-108565071D02*
X83602000Y-107065071D01*
X84102000Y-108136500D01*
X84602000Y-107065071D01*
X84602000Y-108565071D01*
X85244857Y-108136500D02*
X85959143Y-108136500D01*
X85102000Y-108565071D02*
X85602000Y-107065071D01*
X86102000Y-108565071D01*
X87459143Y-108422214D02*
X87387714Y-108493643D01*
X87173428Y-108565071D01*
X87030571Y-108565071D01*
X86816286Y-108493643D01*
X86673428Y-108350786D01*
X86602000Y-108207929D01*
X86530571Y-107922214D01*
X86530571Y-107707929D01*
X86602000Y-107422214D01*
X86673428Y-107279357D01*
X86816286Y-107136500D01*
X87030571Y-107065071D01*
X87173428Y-107065071D01*
X87387714Y-107136500D01*
X87459143Y-107207929D01*
X88102000Y-108422214D02*
X88173428Y-108493643D01*
X88102000Y-108565071D01*
X88030571Y-108493643D01*
X88102000Y-108422214D01*
X88102000Y-108565071D01*
X88102000Y-107636500D02*
X88173428Y-107707929D01*
X88102000Y-107779357D01*
X88030571Y-107707929D01*
X88102000Y-107636500D01*
X88102000Y-107779357D01*
X137581144Y-120542857D02*
X137795430Y-120614286D01*
X137866858Y-120685714D01*
X137938287Y-120828571D01*
X137938287Y-121042857D01*
X137866858Y-121185714D01*
X137795430Y-121257143D01*
X137652572Y-121328571D01*
X137081144Y-121328571D01*
X137081144Y-119828571D01*
X137581144Y-119828571D01*
X137724001Y-119900000D01*
X137795430Y-119971429D01*
X137866858Y-120114286D01*
X137866858Y-120257143D01*
X137795430Y-120400000D01*
X137724001Y-120471429D01*
X137581144Y-120542857D01*
X137081144Y-120542857D01*
X138581144Y-121328571D02*
X138581144Y-119828571D01*
X139081144Y-120900000D01*
X139581144Y-119828571D01*
X139581144Y-121328571D01*
X140295430Y-121328571D02*
X140295430Y-119828571D01*
X140866858Y-119828571D01*
X141009716Y-119900000D01*
X141081144Y-119971429D01*
X141152573Y-120114286D01*
X141152573Y-120328571D01*
X141081144Y-120471429D01*
X141009716Y-120542857D01*
X140866858Y-120614286D01*
X140295430Y-120614286D01*
X142581144Y-121328571D02*
X141724001Y-121328571D01*
X142152573Y-121328571D02*
X142152573Y-119828571D01*
X142009716Y-120042857D01*
X141866858Y-120185714D01*
X141724001Y-120257143D01*
X143438287Y-120471429D02*
X143295429Y-120400000D01*
X143224001Y-120328571D01*
X143152572Y-120185714D01*
X143152572Y-120114286D01*
X143224001Y-119971429D01*
X143295429Y-119900000D01*
X143438287Y-119828571D01*
X143724001Y-119828571D01*
X143866858Y-119900000D01*
X143938287Y-119971429D01*
X144009715Y-120114286D01*
X144009715Y-120185714D01*
X143938287Y-120328571D01*
X143866858Y-120400000D01*
X143724001Y-120471429D01*
X143438287Y-120471429D01*
X143295429Y-120542857D01*
X143224001Y-120614286D01*
X143152572Y-120757143D01*
X143152572Y-121042857D01*
X143224001Y-121185714D01*
X143295429Y-121257143D01*
X143438287Y-121328571D01*
X143724001Y-121328571D01*
X143866858Y-121257143D01*
X143938287Y-121185714D01*
X144009715Y-121042857D01*
X144009715Y-120757143D01*
X143938287Y-120614286D01*
X143866858Y-120542857D01*
X143724001Y-120471429D01*
X144938286Y-119828571D02*
X145081143Y-119828571D01*
X145224000Y-119900000D01*
X145295429Y-119971429D01*
X145366858Y-120114286D01*
X145438286Y-120400000D01*
X145438286Y-120757143D01*
X145366858Y-121042857D01*
X145295429Y-121185714D01*
X145224000Y-121257143D01*
X145081143Y-121328571D01*
X144938286Y-121328571D01*
X144795429Y-121257143D01*
X144724000Y-121185714D01*
X144652572Y-121042857D01*
X144581143Y-120757143D01*
X144581143Y-120400000D01*
X144652572Y-120114286D01*
X144724000Y-119971429D01*
X144795429Y-119900000D01*
X144938286Y-119828571D01*
X113359572Y-114343571D02*
X112859572Y-113629286D01*
X112502429Y-114343571D02*
X112502429Y-112843571D01*
X113073857Y-112843571D01*
X113216715Y-112915000D01*
X113288143Y-112986429D01*
X113359572Y-113129286D01*
X113359572Y-113343571D01*
X113288143Y-113486429D01*
X113216715Y-113557857D01*
X113073857Y-113629286D01*
X112502429Y-113629286D01*
X113931000Y-113915000D02*
X114645286Y-113915000D01*
X113788143Y-114343571D02*
X114288143Y-112843571D01*
X114788143Y-114343571D01*
X115288143Y-114343571D02*
X115288143Y-112843571D01*
X116002429Y-114343571D02*
X116002429Y-112843571D01*
X116859572Y-114343571D01*
X116859572Y-112843571D01*
X123944572Y-115058000D02*
X124658858Y-115058000D01*
X123801715Y-115486571D02*
X124301715Y-113986571D01*
X124801715Y-115486571D01*
X125301715Y-115486571D02*
X125301715Y-113986571D01*
X125801715Y-115058000D01*
X126301715Y-113986571D01*
X126301715Y-115486571D01*
X126944572Y-114129429D02*
X127016001Y-114058000D01*
X127158858Y-113986571D01*
X127516001Y-113986571D01*
X127658858Y-114058000D01*
X127730287Y-114129429D01*
X127801715Y-114272286D01*
X127801715Y-114415143D01*
X127730287Y-114629429D01*
X126873144Y-115486571D01*
X127801715Y-115486571D01*
X128301715Y-113986571D02*
X129230286Y-113986571D01*
X128730286Y-114558000D01*
X128944572Y-114558000D01*
X129087429Y-114629429D01*
X129158858Y-114700857D01*
X129230286Y-114843714D01*
X129230286Y-115200857D01*
X129158858Y-115343714D01*
X129087429Y-115415143D01*
X128944572Y-115486571D01*
X128516000Y-115486571D01*
X128373143Y-115415143D01*
X128301715Y-115343714D01*
X130158857Y-113986571D02*
X130301714Y-113986571D01*
X130444571Y-114058000D01*
X130516000Y-114129429D01*
X130587429Y-114272286D01*
X130658857Y-114558000D01*
X130658857Y-114915143D01*
X130587429Y-115200857D01*
X130516000Y-115343714D01*
X130444571Y-115415143D01*
X130301714Y-115486571D01*
X130158857Y-115486571D01*
X130016000Y-115415143D01*
X129944571Y-115343714D01*
X129873143Y-115200857D01*
X129801714Y-114915143D01*
X129801714Y-114558000D01*
X129873143Y-114272286D01*
X129944571Y-114129429D01*
X130016000Y-114058000D01*
X130158857Y-113986571D01*
X131230285Y-114129429D02*
X131301714Y-114058000D01*
X131444571Y-113986571D01*
X131801714Y-113986571D01*
X131944571Y-114058000D01*
X132016000Y-114129429D01*
X132087428Y-114272286D01*
X132087428Y-114415143D01*
X132016000Y-114629429D01*
X131158857Y-115486571D01*
X132087428Y-115486571D01*
X121102714Y-162119571D02*
X121102714Y-163333857D01*
X121174142Y-163476714D01*
X121245571Y-163548143D01*
X121388428Y-163619571D01*
X121674142Y-163619571D01*
X121817000Y-163548143D01*
X121888428Y-163476714D01*
X121959857Y-163333857D01*
X121959857Y-162119571D01*
X122674143Y-163619571D02*
X122674143Y-162119571D01*
X122674143Y-162691000D02*
X122817000Y-162619571D01*
X123102714Y-162619571D01*
X123245571Y-162691000D01*
X123317000Y-162762429D01*
X123388429Y-162905286D01*
X123388429Y-163333857D01*
X123317000Y-163476714D01*
X123245571Y-163548143D01*
X123102714Y-163619571D01*
X122817000Y-163619571D01*
X122674143Y-163548143D01*
X124674143Y-163619571D02*
X124674143Y-162833857D01*
X124602714Y-162691000D01*
X124459857Y-162619571D01*
X124174143Y-162619571D01*
X124031286Y-162691000D01*
X124674143Y-163548143D02*
X124531286Y-163619571D01*
X124174143Y-163619571D01*
X124031286Y-163548143D01*
X123959857Y-163405286D01*
X123959857Y-163262429D01*
X124031286Y-163119571D01*
X124174143Y-163048143D01*
X124531286Y-163048143D01*
X124674143Y-162976714D01*
X125174143Y-162619571D02*
X125745572Y-162619571D01*
X125388429Y-162119571D02*
X125388429Y-163405286D01*
X125459857Y-163548143D01*
X125602715Y-163619571D01*
X125745572Y-163619571D01*
X89694072Y-161929071D02*
X90551215Y-161929071D01*
X90122644Y-163429071D02*
X90122644Y-161929071D01*
X90908358Y-161929071D02*
X91908358Y-163429071D01*
X91908358Y-161929071D02*
X90908358Y-163429071D01*
X92408357Y-162071929D02*
X92479786Y-162000500D01*
X92622643Y-161929071D01*
X92979786Y-161929071D01*
X93122643Y-162000500D01*
X93194072Y-162071929D01*
X93265500Y-162214786D01*
X93265500Y-162357643D01*
X93194072Y-162571929D01*
X92336929Y-163429071D01*
X93265500Y-163429071D01*
X94194071Y-161929071D02*
X94336928Y-161929071D01*
X94479785Y-162000500D01*
X94551214Y-162071929D01*
X94622643Y-162214786D01*
X94694071Y-162500500D01*
X94694071Y-162857643D01*
X94622643Y-163143357D01*
X94551214Y-163286214D01*
X94479785Y-163357643D01*
X94336928Y-163429071D01*
X94194071Y-163429071D01*
X94051214Y-163357643D01*
X93979785Y-163286214D01*
X93908357Y-163143357D01*
X93836928Y-162857643D01*
X93836928Y-162500500D01*
X93908357Y-162214786D01*
X93979785Y-162071929D01*
X94051214Y-162000500D01*
X94194071Y-161929071D01*
X127381072Y-160000143D02*
X128523929Y-160000143D01*
X127952500Y-160571571D02*
X127952500Y-159428714D01*
D12*
X119253000Y-141231714D02*
X119491095Y-141469810D01*
X119253000Y-141707905D01*
X119014905Y-141469810D01*
X119253000Y-141231714D01*
X119253000Y-141707905D01*
D11*
X141256000Y-126432571D02*
X141756000Y-127932571D01*
X142256000Y-126432571D01*
X143613143Y-127789714D02*
X143541714Y-127861143D01*
X143327428Y-127932571D01*
X143184571Y-127932571D01*
X142970286Y-127861143D01*
X142827428Y-127718286D01*
X142756000Y-127575429D01*
X142684571Y-127289714D01*
X142684571Y-127075429D01*
X142756000Y-126789714D01*
X142827428Y-126646857D01*
X142970286Y-126504000D01*
X143184571Y-126432571D01*
X143327428Y-126432571D01*
X143541714Y-126504000D01*
X143613143Y-126575429D01*
X145113143Y-127789714D02*
X145041714Y-127861143D01*
X144827428Y-127932571D01*
X144684571Y-127932571D01*
X144470286Y-127861143D01*
X144327428Y-127718286D01*
X144256000Y-127575429D01*
X144184571Y-127289714D01*
X144184571Y-127075429D01*
X144256000Y-126789714D01*
X144327428Y-126646857D01*
X144470286Y-126504000D01*
X144684571Y-126432571D01*
X144827428Y-126432571D01*
X145041714Y-126504000D01*
X145113143Y-126575429D01*
X142494143Y-129044000D02*
X142351286Y-128972571D01*
X142137000Y-128972571D01*
X141922715Y-129044000D01*
X141779857Y-129186857D01*
X141708429Y-129329714D01*
X141637000Y-129615429D01*
X141637000Y-129829714D01*
X141708429Y-130115429D01*
X141779857Y-130258286D01*
X141922715Y-130401143D01*
X142137000Y-130472571D01*
X142279857Y-130472571D01*
X142494143Y-130401143D01*
X142565572Y-130329714D01*
X142565572Y-129829714D01*
X142279857Y-129829714D01*
X143208429Y-130472571D02*
X143208429Y-128972571D01*
X144065572Y-130472571D01*
X144065572Y-128972571D01*
X144779858Y-130472571D02*
X144779858Y-128972571D01*
X145137001Y-128972571D01*
X145351286Y-129044000D01*
X145494144Y-129186857D01*
X145565572Y-129329714D01*
X145637001Y-129615429D01*
X145637001Y-129829714D01*
X145565572Y-130115429D01*
X145494144Y-130258286D01*
X145351286Y-130401143D01*
X145137001Y-130472571D01*
X144779858Y-130472571D01*
X141248144Y-131639571D02*
X142248144Y-133139571D01*
X142248144Y-131639571D02*
X141248144Y-133139571D01*
X143676715Y-133139571D02*
X143176715Y-132425286D01*
X142819572Y-133139571D02*
X142819572Y-131639571D01*
X143391000Y-131639571D01*
X143533858Y-131711000D01*
X143605286Y-131782429D01*
X143676715Y-131925286D01*
X143676715Y-132139571D01*
X143605286Y-132282429D01*
X143533858Y-132353857D01*
X143391000Y-132425286D01*
X142819572Y-132425286D01*
X144319572Y-132353857D02*
X144819572Y-132353857D01*
X145033858Y-133139571D02*
X144319572Y-133139571D01*
X144319572Y-131639571D01*
X145033858Y-131639571D01*
X145605286Y-133068143D02*
X145819572Y-133139571D01*
X146176715Y-133139571D01*
X146319572Y-133068143D01*
X146391001Y-132996714D01*
X146462429Y-132853857D01*
X146462429Y-132711000D01*
X146391001Y-132568143D01*
X146319572Y-132496714D01*
X146176715Y-132425286D01*
X145891001Y-132353857D01*
X145748143Y-132282429D01*
X145676715Y-132211000D01*
X145605286Y-132068143D01*
X145605286Y-131925286D01*
X145676715Y-131782429D01*
X145748143Y-131711000D01*
X145891001Y-131639571D01*
X146248143Y-131639571D01*
X146462429Y-131711000D01*
X142490143Y-135790714D02*
X142418714Y-135862143D01*
X142204428Y-135933571D01*
X142061571Y-135933571D01*
X141847286Y-135862143D01*
X141704428Y-135719286D01*
X141633000Y-135576429D01*
X141561571Y-135290714D01*
X141561571Y-135076429D01*
X141633000Y-134790714D01*
X141704428Y-134647857D01*
X141847286Y-134505000D01*
X142061571Y-134433571D01*
X142204428Y-134433571D01*
X142418714Y-134505000D01*
X142490143Y-134576429D01*
X143847286Y-135933571D02*
X143133000Y-135933571D01*
X143133000Y-134433571D01*
X144347286Y-135933571D02*
X144347286Y-134433571D01*
X145204429Y-135933571D02*
X144561572Y-135076429D01*
X145204429Y-134433571D02*
X144347286Y-135290714D01*
X141835286Y-138727571D02*
X141835286Y-137227571D01*
X142835286Y-137227571D02*
X143121000Y-137227571D01*
X143263858Y-137299000D01*
X143406715Y-137441857D01*
X143478143Y-137727571D01*
X143478143Y-138227571D01*
X143406715Y-138513286D01*
X143263858Y-138656143D01*
X143121000Y-138727571D01*
X142835286Y-138727571D01*
X142692429Y-138656143D01*
X142549572Y-138513286D01*
X142478143Y-138227571D01*
X142478143Y-137727571D01*
X142549572Y-137441857D01*
X142692429Y-137299000D01*
X142835286Y-137227571D01*
X99949143Y-123202000D02*
X99806286Y-123130571D01*
X99592000Y-123130571D01*
X99377715Y-123202000D01*
X99234857Y-123344857D01*
X99163429Y-123487714D01*
X99092000Y-123773429D01*
X99092000Y-123987714D01*
X99163429Y-124273429D01*
X99234857Y-124416286D01*
X99377715Y-124559143D01*
X99592000Y-124630571D01*
X99734857Y-124630571D01*
X99949143Y-124559143D01*
X100020572Y-124487714D01*
X100020572Y-123987714D01*
X99734857Y-123987714D01*
X100663429Y-124630571D02*
X100663429Y-123130571D01*
X101520572Y-124630571D01*
X101520572Y-123130571D01*
X102234858Y-124630571D02*
X102234858Y-123130571D01*
X102592001Y-123130571D01*
X102806286Y-123202000D01*
X102949144Y-123344857D01*
X103020572Y-123487714D01*
X103092001Y-123773429D01*
X103092001Y-123987714D01*
X103020572Y-124273429D01*
X102949144Y-124416286D01*
X102806286Y-124559143D01*
X102592001Y-124630571D01*
X102234858Y-124630571D01*
X101584143Y-121836571D02*
X101084143Y-121122286D01*
X100727000Y-121836571D02*
X100727000Y-120336571D01*
X101298428Y-120336571D01*
X101441286Y-120408000D01*
X101512714Y-120479429D01*
X101584143Y-120622286D01*
X101584143Y-120836571D01*
X101512714Y-120979429D01*
X101441286Y-121050857D01*
X101298428Y-121122286D01*
X100727000Y-121122286D01*
X102084143Y-121836571D02*
X102869857Y-120836571D01*
X102084143Y-120836571D02*
X102869857Y-121836571D01*
X100818286Y-118050571D02*
X101675429Y-118050571D01*
X101246858Y-119550571D02*
X101246858Y-118050571D01*
X102032572Y-119550571D02*
X102818286Y-118550571D01*
X102032572Y-118550571D02*
X102818286Y-119550571D01*
X99346000Y-115383571D02*
X99846000Y-116883571D01*
X100346000Y-115383571D01*
X101703143Y-116740714D02*
X101631714Y-116812143D01*
X101417428Y-116883571D01*
X101274571Y-116883571D01*
X101060286Y-116812143D01*
X100917428Y-116669286D01*
X100846000Y-116526429D01*
X100774571Y-116240714D01*
X100774571Y-116026429D01*
X100846000Y-115740714D01*
X100917428Y-115597857D01*
X101060286Y-115455000D01*
X101274571Y-115383571D01*
X101417428Y-115383571D01*
X101631714Y-115455000D01*
X101703143Y-115526429D01*
X103203143Y-116740714D02*
X103131714Y-116812143D01*
X102917428Y-116883571D01*
X102774571Y-116883571D01*
X102560286Y-116812143D01*
X102417428Y-116669286D01*
X102346000Y-116526429D01*
X102274571Y-116240714D01*
X102274571Y-116026429D01*
X102346000Y-115740714D01*
X102417428Y-115597857D01*
X102560286Y-115455000D01*
X102774571Y-115383571D01*
X102917428Y-115383571D01*
X103131714Y-115455000D01*
X103203143Y-115526429D01*
D13*
X101287000Y-144256000D02*
X102087000Y-144256000D01*
X102087000Y-144256000D02*
X102087000Y-128256000D01*
X102087000Y-128256000D02*
X101287000Y-128256000D01*
D14*
X112919000Y-124972000D02*
X114919000Y-124972000D01*
X114919000Y-122932000D02*
X112919000Y-122932000D01*
X135882000Y-129071000D02*
X134882000Y-129071000D01*
X134882000Y-130771000D02*
X135882000Y-130771000D01*
X112657000Y-127596000D02*
X113657000Y-127596000D01*
X113657000Y-125896000D02*
X112657000Y-125896000D01*
X107434000Y-142152000D02*
X106434000Y-142152000D01*
X106434000Y-143852000D02*
X107434000Y-143852000D01*
X116443000Y-142236000D02*
X114443000Y-142236000D01*
X114443000Y-144276000D02*
X116443000Y-144276000D01*
X156075000Y-146978000D02*
X155075000Y-146978000D01*
X155075000Y-148678000D02*
X156075000Y-148678000D01*
X157187000Y-122674000D02*
X157187000Y-121674000D01*
X155487000Y-121674000D02*
X155487000Y-122674000D01*
X134655000Y-132089000D02*
X135855000Y-132089000D01*
X135855000Y-133849000D02*
X134655000Y-133849000D01*
X106588000Y-138185000D02*
X107788000Y-138185000D01*
X107788000Y-139945000D02*
X106588000Y-139945000D01*
X107788000Y-136262000D02*
X106588000Y-136262000D01*
X106588000Y-134502000D02*
X107788000Y-134502000D01*
X107788000Y-132833000D02*
X106588000Y-132833000D01*
X106588000Y-131073000D02*
X107788000Y-131073000D01*
X107661000Y-129404000D02*
X106461000Y-129404000D01*
X106461000Y-127644000D02*
X107661000Y-127644000D01*
X140236500Y-146041000D02*
X139036500Y-146041000D01*
X139036500Y-144281000D02*
X140236500Y-144281000D01*
D15*
X118015000Y-138779000D02*
X118615000Y-138779000D01*
X118015000Y-128429000D02*
X118685000Y-128429000D01*
X128365000Y-128429000D02*
X127695000Y-128429000D01*
X128365000Y-138779000D02*
X127695000Y-138779000D01*
X118015000Y-138779000D02*
X118015000Y-138109000D01*
X128365000Y-138779000D02*
X128365000Y-138109000D01*
X128365000Y-128429000D02*
X128365000Y-129099000D01*
X118015000Y-128429000D02*
X118015000Y-129099000D01*
X118615000Y-138779000D02*
X118615000Y-140254000D01*
D14*
X103953000Y-125282000D02*
X109153000Y-125282000D01*
X103953000Y-117602000D02*
X103953000Y-125282000D01*
X109153000Y-115002000D02*
X109153000Y-125282000D01*
X103953000Y-117602000D02*
X106553000Y-117602000D01*
X106553000Y-117602000D02*
X106553000Y-115002000D01*
X106553000Y-115002000D02*
X109153000Y-115002000D01*
X103953000Y-116332000D02*
X103953000Y-115002000D01*
X103953000Y-115002000D02*
X105283000Y-115002000D01*
X138243000Y-138871000D02*
X140903000Y-138871000D01*
X138243000Y-128651000D02*
X138243000Y-138871000D01*
X140903000Y-128651000D02*
X140903000Y-138871000D01*
X138243000Y-128651000D02*
X140903000Y-128651000D01*
X138243000Y-127381000D02*
X138243000Y-126051000D01*
X138243000Y-126051000D02*
X139573000Y-126051000D01*
X158191820Y-141314864D02*
G75*
G03X152156518Y-141314000I-3017820J-1179136D01*
G01*
X158191820Y-143673136D02*
G75*
G02X152156518Y-143674000I-3017820J1179136D01*
G01*
X158191820Y-143673136D02*
G75*
G03X158191482Y-141314000I-3017820J1179136D01*
G01*
X155174000Y-139294000D02*
X155174000Y-145694000D01*
X155214000Y-139294000D02*
X155214000Y-145694000D01*
X155254000Y-139294000D02*
X155254000Y-145694000D01*
X155294000Y-139296000D02*
X155294000Y-145692000D01*
X155334000Y-139297000D02*
X155334000Y-145691000D01*
X155374000Y-139300000D02*
X155374000Y-145688000D01*
X155414000Y-139302000D02*
X155414000Y-145686000D01*
X155454000Y-139306000D02*
X155454000Y-141514000D01*
X155454000Y-143474000D02*
X155454000Y-145682000D01*
X155494000Y-139309000D02*
X155494000Y-141514000D01*
X155494000Y-143474000D02*
X155494000Y-145679000D01*
X155534000Y-139314000D02*
X155534000Y-141514000D01*
X155534000Y-143474000D02*
X155534000Y-145674000D01*
X155574000Y-139318000D02*
X155574000Y-141514000D01*
X155574000Y-143474000D02*
X155574000Y-145670000D01*
X155614000Y-139324000D02*
X155614000Y-141514000D01*
X155614000Y-143474000D02*
X155614000Y-145664000D01*
X155654000Y-139329000D02*
X155654000Y-141514000D01*
X155654000Y-143474000D02*
X155654000Y-145659000D01*
X155694000Y-139336000D02*
X155694000Y-141514000D01*
X155694000Y-143474000D02*
X155694000Y-145652000D01*
X155734000Y-139342000D02*
X155734000Y-141514000D01*
X155734000Y-143474000D02*
X155734000Y-145646000D01*
X155774000Y-139350000D02*
X155774000Y-141514000D01*
X155774000Y-143474000D02*
X155774000Y-145638000D01*
X155814000Y-139357000D02*
X155814000Y-141514000D01*
X155814000Y-143474000D02*
X155814000Y-145631000D01*
X155854000Y-139366000D02*
X155854000Y-141514000D01*
X155854000Y-143474000D02*
X155854000Y-145622000D01*
X155895000Y-139375000D02*
X155895000Y-141514000D01*
X155895000Y-143474000D02*
X155895000Y-145613000D01*
X155935000Y-139384000D02*
X155935000Y-141514000D01*
X155935000Y-143474000D02*
X155935000Y-145604000D01*
X155975000Y-139394000D02*
X155975000Y-141514000D01*
X155975000Y-143474000D02*
X155975000Y-145594000D01*
X156015000Y-139404000D02*
X156015000Y-141514000D01*
X156015000Y-143474000D02*
X156015000Y-145584000D01*
X156055000Y-139415000D02*
X156055000Y-141514000D01*
X156055000Y-143474000D02*
X156055000Y-145573000D01*
X156095000Y-139427000D02*
X156095000Y-141514000D01*
X156095000Y-143474000D02*
X156095000Y-145561000D01*
X156135000Y-139439000D02*
X156135000Y-141514000D01*
X156135000Y-143474000D02*
X156135000Y-145549000D01*
X156175000Y-139452000D02*
X156175000Y-141514000D01*
X156175000Y-143474000D02*
X156175000Y-145536000D01*
X156215000Y-139465000D02*
X156215000Y-141514000D01*
X156215000Y-143474000D02*
X156215000Y-145523000D01*
X156255000Y-139479000D02*
X156255000Y-141514000D01*
X156255000Y-143474000D02*
X156255000Y-145509000D01*
X156295000Y-139493000D02*
X156295000Y-141514000D01*
X156295000Y-143474000D02*
X156295000Y-145495000D01*
X156335000Y-139508000D02*
X156335000Y-141514000D01*
X156335000Y-143474000D02*
X156335000Y-145480000D01*
X156375000Y-139524000D02*
X156375000Y-141514000D01*
X156375000Y-143474000D02*
X156375000Y-145464000D01*
X156415000Y-139540000D02*
X156415000Y-141514000D01*
X156415000Y-143474000D02*
X156415000Y-145448000D01*
X156455000Y-139557000D02*
X156455000Y-141514000D01*
X156455000Y-143474000D02*
X156455000Y-145431000D01*
X156495000Y-139575000D02*
X156495000Y-141514000D01*
X156495000Y-143474000D02*
X156495000Y-145413000D01*
X156535000Y-139593000D02*
X156535000Y-141514000D01*
X156535000Y-143474000D02*
X156535000Y-145395000D01*
X156575000Y-139612000D02*
X156575000Y-141514000D01*
X156575000Y-143474000D02*
X156575000Y-145376000D01*
X156615000Y-139631000D02*
X156615000Y-141514000D01*
X156615000Y-143474000D02*
X156615000Y-145357000D01*
X156655000Y-139651000D02*
X156655000Y-141514000D01*
X156655000Y-143474000D02*
X156655000Y-145337000D01*
X156695000Y-139672000D02*
X156695000Y-141514000D01*
X156695000Y-143474000D02*
X156695000Y-145316000D01*
X156735000Y-139694000D02*
X156735000Y-141514000D01*
X156735000Y-143474000D02*
X156735000Y-145294000D01*
X156775000Y-139716000D02*
X156775000Y-141514000D01*
X156775000Y-143474000D02*
X156775000Y-145272000D01*
X156815000Y-139739000D02*
X156815000Y-141514000D01*
X156815000Y-143474000D02*
X156815000Y-145249000D01*
X156855000Y-139763000D02*
X156855000Y-141514000D01*
X156855000Y-143474000D02*
X156855000Y-145225000D01*
X156895000Y-139788000D02*
X156895000Y-141514000D01*
X156895000Y-143474000D02*
X156895000Y-145200000D01*
X156935000Y-139813000D02*
X156935000Y-141514000D01*
X156935000Y-143474000D02*
X156935000Y-145175000D01*
X156975000Y-139840000D02*
X156975000Y-141514000D01*
X156975000Y-143474000D02*
X156975000Y-145148000D01*
X157015000Y-139867000D02*
X157015000Y-141514000D01*
X157015000Y-143474000D02*
X157015000Y-145121000D01*
X157055000Y-139895000D02*
X157055000Y-141514000D01*
X157055000Y-143474000D02*
X157055000Y-145093000D01*
X157095000Y-139924000D02*
X157095000Y-141514000D01*
X157095000Y-143474000D02*
X157095000Y-145064000D01*
X157135000Y-139954000D02*
X157135000Y-141514000D01*
X157135000Y-143474000D02*
X157135000Y-145034000D01*
X157175000Y-139984000D02*
X157175000Y-141514000D01*
X157175000Y-143474000D02*
X157175000Y-145004000D01*
X157215000Y-140016000D02*
X157215000Y-141514000D01*
X157215000Y-143474000D02*
X157215000Y-144972000D01*
X157255000Y-140049000D02*
X157255000Y-141514000D01*
X157255000Y-143474000D02*
X157255000Y-144939000D01*
X157295000Y-140083000D02*
X157295000Y-141514000D01*
X157295000Y-143474000D02*
X157295000Y-144905000D01*
X157335000Y-140119000D02*
X157335000Y-141514000D01*
X157335000Y-143474000D02*
X157335000Y-144869000D01*
X157375000Y-140155000D02*
X157375000Y-141514000D01*
X157375000Y-143474000D02*
X157375000Y-144833000D01*
X157415000Y-140193000D02*
X157415000Y-144795000D01*
X157455000Y-140232000D02*
X157455000Y-144756000D01*
X157495000Y-140272000D02*
X157495000Y-144716000D01*
X157535000Y-140314000D02*
X157535000Y-144674000D01*
X157575000Y-140357000D02*
X157575000Y-144631000D01*
X157615000Y-140402000D02*
X157615000Y-144586000D01*
X157655000Y-140449000D02*
X157655000Y-144539000D01*
X157695000Y-140497000D02*
X157695000Y-144491000D01*
X157735000Y-140548000D02*
X157735000Y-144440000D01*
X157775000Y-140600000D02*
X157775000Y-144388000D01*
X157815000Y-140655000D02*
X157815000Y-144333000D01*
X157855000Y-140713000D02*
X157855000Y-144275000D01*
X157895000Y-140773000D02*
X157895000Y-144215000D01*
X157935000Y-140836000D02*
X157935000Y-144152000D01*
X157975000Y-140903000D02*
X157975000Y-144085000D01*
X158015000Y-140974000D02*
X158015000Y-144014000D01*
X158055000Y-141049000D02*
X158055000Y-143939000D01*
X158095000Y-141130000D02*
X158095000Y-143858000D01*
X158135000Y-141216000D02*
X158135000Y-143772000D01*
X158175000Y-141310000D02*
X158175000Y-143678000D01*
X158215000Y-141413000D02*
X158215000Y-143575000D01*
X158255000Y-141528000D02*
X158255000Y-143460000D01*
X158295000Y-141660000D02*
X158295000Y-143328000D01*
X158335000Y-141818000D02*
X158335000Y-143170000D01*
X158375000Y-142026000D02*
X158375000Y-142962000D01*
X151724000Y-142494000D02*
X152924000Y-142494000D01*
X152324000Y-141844000D02*
X152324000Y-143144000D01*
X152500223Y-124209722D02*
G75*
G03X152500500Y-119598420I-1179723J2305722D01*
G01*
X150140777Y-124209722D02*
G75*
G02X150140500Y-119598420I1179723J2305722D01*
G01*
X150140777Y-124209722D02*
G75*
G03X152500500Y-124209580I1179723J2305722D01*
G01*
X153870500Y-121904000D02*
X148770500Y-121904000D01*
X153870500Y-121944000D02*
X152300500Y-121944000D01*
X150340500Y-121944000D02*
X148770500Y-121944000D01*
X153869500Y-121984000D02*
X152300500Y-121984000D01*
X150340500Y-121984000D02*
X148771500Y-121984000D01*
X153868500Y-122024000D02*
X152300500Y-122024000D01*
X150340500Y-122024000D02*
X148772500Y-122024000D01*
X153866500Y-122064000D02*
X152300500Y-122064000D01*
X150340500Y-122064000D02*
X148774500Y-122064000D01*
X153863500Y-122104000D02*
X152300500Y-122104000D01*
X150340500Y-122104000D02*
X148777500Y-122104000D01*
X153859500Y-122144000D02*
X152300500Y-122144000D01*
X150340500Y-122144000D02*
X148781500Y-122144000D01*
X153855500Y-122184000D02*
X152300500Y-122184000D01*
X150340500Y-122184000D02*
X148785500Y-122184000D01*
X153851500Y-122224000D02*
X152300500Y-122224000D01*
X150340500Y-122224000D02*
X148789500Y-122224000D01*
X153845500Y-122264000D02*
X152300500Y-122264000D01*
X150340500Y-122264000D02*
X148795500Y-122264000D01*
X153839500Y-122304000D02*
X152300500Y-122304000D01*
X150340500Y-122304000D02*
X148801500Y-122304000D01*
X153833500Y-122344000D02*
X152300500Y-122344000D01*
X150340500Y-122344000D02*
X148807500Y-122344000D01*
X153826500Y-122384000D02*
X152300500Y-122384000D01*
X150340500Y-122384000D02*
X148814500Y-122384000D01*
X153818500Y-122424000D02*
X152300500Y-122424000D01*
X150340500Y-122424000D02*
X148822500Y-122424000D01*
X153809500Y-122464000D02*
X152300500Y-122464000D01*
X150340500Y-122464000D02*
X148831500Y-122464000D01*
X153800500Y-122504000D02*
X152300500Y-122504000D01*
X150340500Y-122504000D02*
X148840500Y-122504000D01*
X153790500Y-122544000D02*
X152300500Y-122544000D01*
X150340500Y-122544000D02*
X148850500Y-122544000D01*
X153780500Y-122584000D02*
X152300500Y-122584000D01*
X150340500Y-122584000D02*
X148860500Y-122584000D01*
X153768500Y-122625000D02*
X152300500Y-122625000D01*
X150340500Y-122625000D02*
X148872500Y-122625000D01*
X153756500Y-122665000D02*
X152300500Y-122665000D01*
X150340500Y-122665000D02*
X148884500Y-122665000D01*
X153744500Y-122705000D02*
X152300500Y-122705000D01*
X150340500Y-122705000D02*
X148896500Y-122705000D01*
X153730500Y-122745000D02*
X152300500Y-122745000D01*
X150340500Y-122745000D02*
X148910500Y-122745000D01*
X153716500Y-122785000D02*
X152300500Y-122785000D01*
X150340500Y-122785000D02*
X148924500Y-122785000D01*
X153702500Y-122825000D02*
X152300500Y-122825000D01*
X150340500Y-122825000D02*
X148938500Y-122825000D01*
X153686500Y-122865000D02*
X152300500Y-122865000D01*
X150340500Y-122865000D02*
X148954500Y-122865000D01*
X153670500Y-122905000D02*
X152300500Y-122905000D01*
X150340500Y-122905000D02*
X148970500Y-122905000D01*
X153653500Y-122945000D02*
X152300500Y-122945000D01*
X150340500Y-122945000D02*
X148987500Y-122945000D01*
X153635500Y-122985000D02*
X152300500Y-122985000D01*
X150340500Y-122985000D02*
X149005500Y-122985000D01*
X153616500Y-123025000D02*
X152300500Y-123025000D01*
X150340500Y-123025000D02*
X149024500Y-123025000D01*
X153596500Y-123065000D02*
X152300500Y-123065000D01*
X150340500Y-123065000D02*
X149044500Y-123065000D01*
X153576500Y-123105000D02*
X152300500Y-123105000D01*
X150340500Y-123105000D02*
X149064500Y-123105000D01*
X153554500Y-123145000D02*
X152300500Y-123145000D01*
X150340500Y-123145000D02*
X149086500Y-123145000D01*
X153532500Y-123185000D02*
X152300500Y-123185000D01*
X150340500Y-123185000D02*
X149108500Y-123185000D01*
X153509500Y-123225000D02*
X152300500Y-123225000D01*
X150340500Y-123225000D02*
X149131500Y-123225000D01*
X153485500Y-123265000D02*
X152300500Y-123265000D01*
X150340500Y-123265000D02*
X149155500Y-123265000D01*
X153460500Y-123305000D02*
X152300500Y-123305000D01*
X150340500Y-123305000D02*
X149180500Y-123305000D01*
X153433500Y-123345000D02*
X152300500Y-123345000D01*
X150340500Y-123345000D02*
X149207500Y-123345000D01*
X153406500Y-123385000D02*
X152300500Y-123385000D01*
X150340500Y-123385000D02*
X149234500Y-123385000D01*
X153378500Y-123425000D02*
X152300500Y-123425000D01*
X150340500Y-123425000D02*
X149262500Y-123425000D01*
X153348500Y-123465000D02*
X152300500Y-123465000D01*
X150340500Y-123465000D02*
X149292500Y-123465000D01*
X153317500Y-123505000D02*
X152300500Y-123505000D01*
X150340500Y-123505000D02*
X149323500Y-123505000D01*
X153285500Y-123545000D02*
X152300500Y-123545000D01*
X150340500Y-123545000D02*
X149355500Y-123545000D01*
X153252500Y-123585000D02*
X152300500Y-123585000D01*
X150340500Y-123585000D02*
X149388500Y-123585000D01*
X153217500Y-123625000D02*
X152300500Y-123625000D01*
X150340500Y-123625000D02*
X149423500Y-123625000D01*
X153181500Y-123665000D02*
X152300500Y-123665000D01*
X150340500Y-123665000D02*
X149459500Y-123665000D01*
X153143500Y-123705000D02*
X152300500Y-123705000D01*
X150340500Y-123705000D02*
X149497500Y-123705000D01*
X153103500Y-123745000D02*
X152300500Y-123745000D01*
X150340500Y-123745000D02*
X149537500Y-123745000D01*
X153062500Y-123785000D02*
X152300500Y-123785000D01*
X150340500Y-123785000D02*
X149578500Y-123785000D01*
X153019500Y-123825000D02*
X152300500Y-123825000D01*
X150340500Y-123825000D02*
X149621500Y-123825000D01*
X152974500Y-123865000D02*
X152300500Y-123865000D01*
X150340500Y-123865000D02*
X149666500Y-123865000D01*
X152926500Y-123905000D02*
X149714500Y-123905000D01*
X152876500Y-123945000D02*
X149764500Y-123945000D01*
X152824500Y-123985000D02*
X149816500Y-123985000D01*
X152768500Y-124025000D02*
X149872500Y-124025000D01*
X152710500Y-124065000D02*
X149930500Y-124065000D01*
X152647500Y-124105000D02*
X149993500Y-124105000D01*
X152581500Y-124145000D02*
X150059500Y-124145000D01*
X152509500Y-124185000D02*
X150131500Y-124185000D01*
X152432500Y-124225000D02*
X150208500Y-124225000D01*
X152348500Y-124265000D02*
X150292500Y-124265000D01*
X152254500Y-124305000D02*
X150386500Y-124305000D01*
X152149500Y-124345000D02*
X150491500Y-124345000D01*
X152027500Y-124385000D02*
X150613500Y-124385000D01*
X151879500Y-124425000D02*
X150761500Y-124425000D01*
X151674500Y-124465000D02*
X150966500Y-124465000D01*
X151320500Y-118704000D02*
X151320500Y-119904000D01*
X151970500Y-119304000D02*
X150670500Y-119304000D01*
X128044500Y-146104500D02*
X126844500Y-146104500D01*
X126844500Y-144344500D02*
X128044500Y-144344500D01*
X134140500Y-146041000D02*
X132940500Y-146041000D01*
X132940500Y-144281000D02*
X134140500Y-144281000D01*
X124361500Y-155756500D02*
X123161500Y-155756500D01*
X123161500Y-153996500D02*
X124361500Y-153996500D01*
X119688500Y-155610000D02*
X119688500Y-156810000D01*
X117928500Y-156810000D02*
X117928500Y-155610000D01*
X144653000Y-116018000D02*
X136973000Y-116018000D01*
X136973000Y-116018000D02*
X136973000Y-118678000D01*
X136973000Y-118678000D02*
X144653000Y-118678000D01*
X144653000Y-118678000D02*
X144653000Y-116018000D01*
X145923000Y-116018000D02*
X147253000Y-116018000D01*
X147253000Y-116018000D02*
X147253000Y-117348000D01*
X125095000Y-112074000D02*
X132775000Y-112074000D01*
X132775000Y-112074000D02*
X132775000Y-109414000D01*
X132775000Y-109414000D02*
X125095000Y-109414000D01*
X125095000Y-109414000D02*
X125095000Y-112074000D01*
X123825000Y-112074000D02*
X122495000Y-112074000D01*
X122495000Y-112074000D02*
X122495000Y-110744000D01*
X110938000Y-111566000D02*
X116138000Y-111566000D01*
X110938000Y-111506000D02*
X110938000Y-111566000D01*
X116138000Y-108906000D02*
X116138000Y-111566000D01*
X110938000Y-111506000D02*
X113538000Y-111506000D01*
X113538000Y-111506000D02*
X113538000Y-108906000D01*
X113538000Y-108906000D02*
X116138000Y-108906000D01*
X110938000Y-110236000D02*
X110938000Y-108906000D01*
X110938000Y-108906000D02*
X112268000Y-108906000D01*
X121225000Y-161286500D02*
X126425000Y-161286500D01*
X121225000Y-161226500D02*
X121225000Y-161286500D01*
X126425000Y-158626500D02*
X126425000Y-161286500D01*
X121225000Y-161226500D02*
X123825000Y-161226500D01*
X123825000Y-161226500D02*
X123825000Y-158626500D01*
X123825000Y-158626500D02*
X126425000Y-158626500D01*
X121225000Y-159956500D02*
X121225000Y-158626500D01*
X121225000Y-158626500D02*
X122555000Y-158626500D01*
X149197000Y-126857000D02*
X160937000Y-126857000D01*
X149197000Y-135597000D02*
X160937000Y-135597000D01*
X149197000Y-126857000D02*
X149197000Y-135597000D01*
X160937000Y-126857000D02*
X160937000Y-135597000D01*
X148907000Y-134537000D02*
X148907000Y-135847000D01*
X148907000Y-135847000D02*
X150257000Y-135847000D01*
X157039000Y-156079500D02*
X159699000Y-156079500D01*
X157039000Y-156019500D02*
X157039000Y-156079500D01*
X159699000Y-156019500D02*
X159699000Y-156079500D01*
X157039000Y-156019500D02*
X159699000Y-156019500D01*
X157039000Y-154749500D02*
X157039000Y-153419500D01*
X157039000Y-153419500D02*
X158369000Y-153419500D01*
X129180335Y-148146392D02*
G75*
G03X125948000Y-147989484I-1672335J-1078608D01*
G01*
X129180335Y-150303608D02*
G75*
G02X125948000Y-150460516I-1672335J1078608D01*
G01*
X128549130Y-148145163D02*
G75*
G03X126467039Y-148145000I-1041130J-1079837D01*
G01*
X128549130Y-150304837D02*
G75*
G02X126467039Y-150305000I-1041130J1079837D01*
G01*
X125948000Y-147989000D02*
X125948000Y-148145000D01*
X125948000Y-150305000D02*
X125948000Y-150461000D01*
X135276335Y-148146392D02*
G75*
G03X132044000Y-147989484I-1672335J-1078608D01*
G01*
X135276335Y-150303608D02*
G75*
G02X132044000Y-150460516I-1672335J1078608D01*
G01*
X134645130Y-148145163D02*
G75*
G03X132563039Y-148145000I-1041130J-1079837D01*
G01*
X134645130Y-150304837D02*
G75*
G02X132563039Y-150305000I-1041130J1079837D01*
G01*
X132044000Y-147989000D02*
X132044000Y-148145000D01*
X132044000Y-150305000D02*
X132044000Y-150461000D01*
X141372335Y-148146392D02*
G75*
G03X138140000Y-147989484I-1672335J-1078608D01*
G01*
X141372335Y-150303608D02*
G75*
G02X138140000Y-150460516I-1672335J1078608D01*
G01*
X140741130Y-148145163D02*
G75*
G03X138659039Y-148145000I-1041130J-1079837D01*
G01*
X140741130Y-150304837D02*
G75*
G02X138659039Y-150305000I-1041130J1079837D01*
G01*
X138140000Y-147989000D02*
X138140000Y-148145000D01*
X138140000Y-150305000D02*
X138140000Y-150461000D01*
D15*
X98036500Y-157035500D02*
X98036500Y-152535500D01*
X98036500Y-152535500D02*
X110036500Y-152535500D01*
X110036500Y-152535500D02*
X110036500Y-157035500D01*
X98036500Y-161035500D02*
X98036500Y-163535500D01*
X98036500Y-163535500D02*
X110036500Y-163535500D01*
X110036500Y-163535500D02*
X110036500Y-161035500D01*
X85939381Y-148462905D02*
X86748905Y-148462905D01*
X86844143Y-148415286D01*
X86891762Y-148367667D01*
X86939381Y-148272429D01*
X86939381Y-148081952D01*
X86891762Y-147986714D01*
X86844143Y-147939095D01*
X86748905Y-147891476D01*
X85939381Y-147891476D01*
X86034619Y-147462905D02*
X85987000Y-147415286D01*
X85939381Y-147320048D01*
X85939381Y-147081952D01*
X85987000Y-146986714D01*
X86034619Y-146939095D01*
X86129857Y-146891476D01*
X86225095Y-146891476D01*
X86367952Y-146939095D01*
X86939381Y-147510524D01*
X86939381Y-146891476D01*
X114133334Y-122150143D02*
X114085715Y-122197762D01*
X113942858Y-122245381D01*
X113847620Y-122245381D01*
X113704762Y-122197762D01*
X113609524Y-122102524D01*
X113561905Y-122007286D01*
X113514286Y-121816810D01*
X113514286Y-121673952D01*
X113561905Y-121483476D01*
X113609524Y-121388238D01*
X113704762Y-121293000D01*
X113847620Y-121245381D01*
X113942858Y-121245381D01*
X114085715Y-121293000D01*
X114133334Y-121340619D01*
X115085715Y-122245381D02*
X114514286Y-122245381D01*
X114800000Y-122245381D02*
X114800000Y-121245381D01*
X114704762Y-121388238D01*
X114609524Y-121483476D01*
X114514286Y-121531095D01*
X135215334Y-128528143D02*
X135167715Y-128575762D01*
X135024858Y-128623381D01*
X134929620Y-128623381D01*
X134786762Y-128575762D01*
X134691524Y-128480524D01*
X134643905Y-128385286D01*
X134596286Y-128194810D01*
X134596286Y-128051952D01*
X134643905Y-127861476D01*
X134691524Y-127766238D01*
X134786762Y-127671000D01*
X134929620Y-127623381D01*
X135024858Y-127623381D01*
X135167715Y-127671000D01*
X135215334Y-127718619D01*
X135596286Y-127718619D02*
X135643905Y-127671000D01*
X135739143Y-127623381D01*
X135977239Y-127623381D01*
X136072477Y-127671000D01*
X136120096Y-127718619D01*
X136167715Y-127813857D01*
X136167715Y-127909095D01*
X136120096Y-128051952D01*
X135548667Y-128623381D01*
X136167715Y-128623381D01*
X112990334Y-128853143D02*
X112942715Y-128900762D01*
X112799858Y-128948381D01*
X112704620Y-128948381D01*
X112561762Y-128900762D01*
X112466524Y-128805524D01*
X112418905Y-128710286D01*
X112371286Y-128519810D01*
X112371286Y-128376952D01*
X112418905Y-128186476D01*
X112466524Y-128091238D01*
X112561762Y-127996000D01*
X112704620Y-127948381D01*
X112799858Y-127948381D01*
X112942715Y-127996000D01*
X112990334Y-128043619D01*
X113323667Y-127948381D02*
X113942715Y-127948381D01*
X113609381Y-128329333D01*
X113752239Y-128329333D01*
X113847477Y-128376952D01*
X113895096Y-128424571D01*
X113942715Y-128519810D01*
X113942715Y-128757905D01*
X113895096Y-128853143D01*
X113847477Y-128900762D01*
X113752239Y-128948381D01*
X113466524Y-128948381D01*
X113371286Y-128900762D01*
X113323667Y-128853143D01*
X110450334Y-143359143D02*
X110402715Y-143406762D01*
X110259858Y-143454381D01*
X110164620Y-143454381D01*
X110021762Y-143406762D01*
X109926524Y-143311524D01*
X109878905Y-143216286D01*
X109831286Y-143025810D01*
X109831286Y-142882952D01*
X109878905Y-142692476D01*
X109926524Y-142597238D01*
X110021762Y-142502000D01*
X110164620Y-142454381D01*
X110259858Y-142454381D01*
X110402715Y-142502000D01*
X110450334Y-142549619D01*
X111307477Y-142787714D02*
X111307477Y-143454381D01*
X111069381Y-142406762D02*
X110831286Y-143121048D01*
X111450334Y-143121048D01*
X114260334Y-141708143D02*
X114212715Y-141755762D01*
X114069858Y-141803381D01*
X113974620Y-141803381D01*
X113831762Y-141755762D01*
X113736524Y-141660524D01*
X113688905Y-141565286D01*
X113641286Y-141374810D01*
X113641286Y-141231952D01*
X113688905Y-141041476D01*
X113736524Y-140946238D01*
X113831762Y-140851000D01*
X113974620Y-140803381D01*
X114069858Y-140803381D01*
X114212715Y-140851000D01*
X114260334Y-140898619D01*
X115165096Y-140803381D02*
X114688905Y-140803381D01*
X114641286Y-141279571D01*
X114688905Y-141231952D01*
X114784143Y-141184333D01*
X115022239Y-141184333D01*
X115117477Y-141231952D01*
X115165096Y-141279571D01*
X115212715Y-141374810D01*
X115212715Y-141612905D01*
X115165096Y-141708143D01*
X115117477Y-141755762D01*
X115022239Y-141803381D01*
X114784143Y-141803381D01*
X114688905Y-141755762D01*
X114641286Y-141708143D01*
X155535334Y-150090143D02*
X155487715Y-150137762D01*
X155344858Y-150185381D01*
X155249620Y-150185381D01*
X155106762Y-150137762D01*
X155011524Y-150042524D01*
X154963905Y-149947286D01*
X154916286Y-149756810D01*
X154916286Y-149613952D01*
X154963905Y-149423476D01*
X155011524Y-149328238D01*
X155106762Y-149233000D01*
X155249620Y-149185381D01*
X155344858Y-149185381D01*
X155487715Y-149233000D01*
X155535334Y-149280619D01*
X155868667Y-149185381D02*
X156535334Y-149185381D01*
X156106762Y-150185381D01*
X156567143Y-118784666D02*
X156614762Y-118832285D01*
X156662381Y-118975142D01*
X156662381Y-119070380D01*
X156614762Y-119213238D01*
X156519524Y-119308476D01*
X156424286Y-119356095D01*
X156233810Y-119403714D01*
X156090952Y-119403714D01*
X155900476Y-119356095D01*
X155805238Y-119308476D01*
X155710000Y-119213238D01*
X155662381Y-119070380D01*
X155662381Y-118975142D01*
X155710000Y-118832285D01*
X155757619Y-118784666D01*
X156662381Y-118308476D02*
X156662381Y-118118000D01*
X156614762Y-118022761D01*
X156567143Y-117975142D01*
X156424286Y-117879904D01*
X156233810Y-117832285D01*
X155852857Y-117832285D01*
X155757619Y-117879904D01*
X155710000Y-117927523D01*
X155662381Y-118022761D01*
X155662381Y-118213238D01*
X155710000Y-118308476D01*
X155757619Y-118356095D01*
X155852857Y-118403714D01*
X156090952Y-118403714D01*
X156186190Y-118356095D01*
X156233810Y-118308476D01*
X156281429Y-118213238D01*
X156281429Y-118022761D01*
X156233810Y-117927523D01*
X156186190Y-117879904D01*
X156090952Y-117832285D01*
X135088334Y-135121381D02*
X134755000Y-134645190D01*
X134516905Y-135121381D02*
X134516905Y-134121381D01*
X134897858Y-134121381D01*
X134993096Y-134169000D01*
X135040715Y-134216619D01*
X135088334Y-134311857D01*
X135088334Y-134454714D01*
X135040715Y-134549952D01*
X134993096Y-134597571D01*
X134897858Y-134645190D01*
X134516905Y-134645190D01*
X136040715Y-135121381D02*
X135469286Y-135121381D01*
X135755000Y-135121381D02*
X135755000Y-134121381D01*
X135659762Y-134264238D01*
X135564524Y-134359476D01*
X135469286Y-134407095D01*
X110831334Y-139390381D02*
X110498000Y-138914190D01*
X110259905Y-139390381D02*
X110259905Y-138390381D01*
X110640858Y-138390381D01*
X110736096Y-138438000D01*
X110783715Y-138485619D01*
X110831334Y-138580857D01*
X110831334Y-138723714D01*
X110783715Y-138818952D01*
X110736096Y-138866571D01*
X110640858Y-138914190D01*
X110259905Y-138914190D01*
X111212286Y-138485619D02*
X111259905Y-138438000D01*
X111355143Y-138390381D01*
X111593239Y-138390381D01*
X111688477Y-138438000D01*
X111736096Y-138485619D01*
X111783715Y-138580857D01*
X111783715Y-138676095D01*
X111736096Y-138818952D01*
X111164667Y-139390381D01*
X111783715Y-139390381D01*
X110704334Y-135834381D02*
X110371000Y-135358190D01*
X110132905Y-135834381D02*
X110132905Y-134834381D01*
X110513858Y-134834381D01*
X110609096Y-134882000D01*
X110656715Y-134929619D01*
X110704334Y-135024857D01*
X110704334Y-135167714D01*
X110656715Y-135262952D01*
X110609096Y-135310571D01*
X110513858Y-135358190D01*
X110132905Y-135358190D01*
X111037667Y-134834381D02*
X111656715Y-134834381D01*
X111323381Y-135215333D01*
X111466239Y-135215333D01*
X111561477Y-135262952D01*
X111609096Y-135310571D01*
X111656715Y-135405810D01*
X111656715Y-135643905D01*
X111609096Y-135739143D01*
X111561477Y-135786762D01*
X111466239Y-135834381D01*
X111180524Y-135834381D01*
X111085286Y-135786762D01*
X111037667Y-135739143D01*
X110704334Y-132532381D02*
X110371000Y-132056190D01*
X110132905Y-132532381D02*
X110132905Y-131532381D01*
X110513858Y-131532381D01*
X110609096Y-131580000D01*
X110656715Y-131627619D01*
X110704334Y-131722857D01*
X110704334Y-131865714D01*
X110656715Y-131960952D01*
X110609096Y-132008571D01*
X110513858Y-132056190D01*
X110132905Y-132056190D01*
X111561477Y-131865714D02*
X111561477Y-132532381D01*
X111323381Y-131484762D02*
X111085286Y-132199048D01*
X111704334Y-132199048D01*
X110704334Y-128976381D02*
X110371000Y-128500190D01*
X110132905Y-128976381D02*
X110132905Y-127976381D01*
X110513858Y-127976381D01*
X110609096Y-128024000D01*
X110656715Y-128071619D01*
X110704334Y-128166857D01*
X110704334Y-128309714D01*
X110656715Y-128404952D01*
X110609096Y-128452571D01*
X110513858Y-128500190D01*
X110132905Y-128500190D01*
X111609096Y-127976381D02*
X111132905Y-127976381D01*
X111085286Y-128452571D01*
X111132905Y-128404952D01*
X111228143Y-128357333D01*
X111466239Y-128357333D01*
X111561477Y-128404952D01*
X111609096Y-128452571D01*
X111656715Y-128547810D01*
X111656715Y-128785905D01*
X111609096Y-128881143D01*
X111561477Y-128928762D01*
X111466239Y-128976381D01*
X111228143Y-128976381D01*
X111132905Y-128928762D01*
X111085286Y-128881143D01*
X138993643Y-143913381D02*
X138660309Y-143437190D01*
X138422214Y-143913381D02*
X138422214Y-142913381D01*
X138803167Y-142913381D01*
X138898405Y-142961000D01*
X138946024Y-143008619D01*
X138993643Y-143103857D01*
X138993643Y-143246714D01*
X138946024Y-143341952D01*
X138898405Y-143389571D01*
X138803167Y-143437190D01*
X138422214Y-143437190D01*
X139946024Y-143913381D02*
X139374595Y-143913381D01*
X139660309Y-143913381D02*
X139660309Y-142913381D01*
X139565071Y-143056238D01*
X139469833Y-143151476D01*
X139374595Y-143199095D01*
X140803167Y-143246714D02*
X140803167Y-143913381D01*
X140565071Y-142865762D02*
X140326976Y-143580048D01*
X140946024Y-143580048D01*
X116038381Y-140334905D02*
X116847905Y-140334905D01*
X116943143Y-140287286D01*
X116990762Y-140239667D01*
X117038381Y-140144429D01*
X117038381Y-139953952D01*
X116990762Y-139858714D01*
X116943143Y-139811095D01*
X116847905Y-139763476D01*
X116038381Y-139763476D01*
X117038381Y-138763476D02*
X117038381Y-139334905D01*
X117038381Y-139049191D02*
X116038381Y-139049191D01*
X116181238Y-139144429D01*
X116276476Y-139239667D01*
X116324095Y-139334905D01*
X112085381Y-116943095D02*
X111085381Y-116943095D01*
X111085381Y-116562142D01*
X111133000Y-116466904D01*
X111180619Y-116419285D01*
X111275857Y-116371666D01*
X111418714Y-116371666D01*
X111513952Y-116419285D01*
X111561571Y-116466904D01*
X111609190Y-116562142D01*
X111609190Y-116943095D01*
X111180619Y-115990714D02*
X111133000Y-115943095D01*
X111085381Y-115847857D01*
X111085381Y-115609761D01*
X111133000Y-115514523D01*
X111180619Y-115466904D01*
X111275857Y-115419285D01*
X111371095Y-115419285D01*
X111513952Y-115466904D01*
X112085381Y-116038333D01*
X112085381Y-115419285D01*
X138834905Y-125503381D02*
X138834905Y-124503381D01*
X139215858Y-124503381D01*
X139311096Y-124551000D01*
X139358715Y-124598619D01*
X139406334Y-124693857D01*
X139406334Y-124836714D01*
X139358715Y-124931952D01*
X139311096Y-124979571D01*
X139215858Y-125027190D01*
X138834905Y-125027190D01*
X140358715Y-125503381D02*
X139787286Y-125503381D01*
X140073000Y-125503381D02*
X140073000Y-124503381D01*
X139977762Y-124646238D01*
X139882524Y-124741476D01*
X139787286Y-124789095D01*
X150836334Y-140438143D02*
X150788715Y-140485762D01*
X150645858Y-140533381D01*
X150550620Y-140533381D01*
X150407762Y-140485762D01*
X150312524Y-140390524D01*
X150264905Y-140295286D01*
X150217286Y-140104810D01*
X150217286Y-139961952D01*
X150264905Y-139771476D01*
X150312524Y-139676238D01*
X150407762Y-139581000D01*
X150550620Y-139533381D01*
X150645858Y-139533381D01*
X150788715Y-139581000D01*
X150836334Y-139628619D01*
X151693477Y-139533381D02*
X151503000Y-139533381D01*
X151407762Y-139581000D01*
X151360143Y-139628619D01*
X151264905Y-139771476D01*
X151217286Y-139961952D01*
X151217286Y-140342905D01*
X151264905Y-140438143D01*
X151312524Y-140485762D01*
X151407762Y-140533381D01*
X151598239Y-140533381D01*
X151693477Y-140485762D01*
X151741096Y-140438143D01*
X151788715Y-140342905D01*
X151788715Y-140104810D01*
X151741096Y-140009571D01*
X151693477Y-139961952D01*
X151598239Y-139914333D01*
X151407762Y-139914333D01*
X151312524Y-139961952D01*
X151264905Y-140009571D01*
X151217286Y-140104810D01*
X149264643Y-119165666D02*
X149312262Y-119213285D01*
X149359881Y-119356142D01*
X149359881Y-119451380D01*
X149312262Y-119594238D01*
X149217024Y-119689476D01*
X149121786Y-119737095D01*
X148931310Y-119784714D01*
X148788452Y-119784714D01*
X148597976Y-119737095D01*
X148502738Y-119689476D01*
X148407500Y-119594238D01*
X148359881Y-119451380D01*
X148359881Y-119356142D01*
X148407500Y-119213285D01*
X148455119Y-119165666D01*
X148788452Y-118594238D02*
X148740833Y-118689476D01*
X148693214Y-118737095D01*
X148597976Y-118784714D01*
X148550357Y-118784714D01*
X148455119Y-118737095D01*
X148407500Y-118689476D01*
X148359881Y-118594238D01*
X148359881Y-118403761D01*
X148407500Y-118308523D01*
X148455119Y-118260904D01*
X148550357Y-118213285D01*
X148597976Y-118213285D01*
X148693214Y-118260904D01*
X148740833Y-118308523D01*
X148788452Y-118403761D01*
X148788452Y-118594238D01*
X148836071Y-118689476D01*
X148883690Y-118737095D01*
X148978929Y-118784714D01*
X149169405Y-118784714D01*
X149264643Y-118737095D01*
X149312262Y-118689476D01*
X149359881Y-118594238D01*
X149359881Y-118403761D01*
X149312262Y-118308523D01*
X149264643Y-118260904D01*
X149169405Y-118213285D01*
X148978929Y-118213285D01*
X148883690Y-118260904D01*
X148836071Y-118308523D01*
X148788452Y-118403761D01*
X127277834Y-143976881D02*
X126944500Y-143500690D01*
X126706405Y-143976881D02*
X126706405Y-142976881D01*
X127087358Y-142976881D01*
X127182596Y-143024500D01*
X127230215Y-143072119D01*
X127277834Y-143167357D01*
X127277834Y-143310214D01*
X127230215Y-143405452D01*
X127182596Y-143453071D01*
X127087358Y-143500690D01*
X126706405Y-143500690D01*
X128134977Y-142976881D02*
X127944500Y-142976881D01*
X127849262Y-143024500D01*
X127801643Y-143072119D01*
X127706405Y-143214976D01*
X127658786Y-143405452D01*
X127658786Y-143786405D01*
X127706405Y-143881643D01*
X127754024Y-143929262D01*
X127849262Y-143976881D01*
X128039739Y-143976881D01*
X128134977Y-143929262D01*
X128182596Y-143881643D01*
X128230215Y-143786405D01*
X128230215Y-143548310D01*
X128182596Y-143453071D01*
X128134977Y-143405452D01*
X128039739Y-143357833D01*
X127849262Y-143357833D01*
X127754024Y-143405452D01*
X127706405Y-143453071D01*
X127658786Y-143548310D01*
X133373834Y-143913381D02*
X133040500Y-143437190D01*
X132802405Y-143913381D02*
X132802405Y-142913381D01*
X133183358Y-142913381D01*
X133278596Y-142961000D01*
X133326215Y-143008619D01*
X133373834Y-143103857D01*
X133373834Y-143246714D01*
X133326215Y-143341952D01*
X133278596Y-143389571D01*
X133183358Y-143437190D01*
X132802405Y-143437190D01*
X133707167Y-142913381D02*
X134373834Y-142913381D01*
X133945262Y-143913381D01*
X123594834Y-153628881D02*
X123261500Y-153152690D01*
X123023405Y-153628881D02*
X123023405Y-152628881D01*
X123404358Y-152628881D01*
X123499596Y-152676500D01*
X123547215Y-152724119D01*
X123594834Y-152819357D01*
X123594834Y-152962214D01*
X123547215Y-153057452D01*
X123499596Y-153105071D01*
X123404358Y-153152690D01*
X123023405Y-153152690D01*
X124166262Y-153057452D02*
X124071024Y-153009833D01*
X124023405Y-152962214D01*
X123975786Y-152866976D01*
X123975786Y-152819357D01*
X124023405Y-152724119D01*
X124071024Y-152676500D01*
X124166262Y-152628881D01*
X124356739Y-152628881D01*
X124451977Y-152676500D01*
X124499596Y-152724119D01*
X124547215Y-152819357D01*
X124547215Y-152866976D01*
X124499596Y-152962214D01*
X124451977Y-153009833D01*
X124356739Y-153057452D01*
X124166262Y-153057452D01*
X124071024Y-153105071D01*
X124023405Y-153152690D01*
X123975786Y-153247929D01*
X123975786Y-153438405D01*
X124023405Y-153533643D01*
X124071024Y-153581262D01*
X124166262Y-153628881D01*
X124356739Y-153628881D01*
X124451977Y-153581262D01*
X124499596Y-153533643D01*
X124547215Y-153438405D01*
X124547215Y-153247929D01*
X124499596Y-153152690D01*
X124451977Y-153105071D01*
X124356739Y-153057452D01*
X117560881Y-156376666D02*
X117084690Y-156710000D01*
X117560881Y-156948095D02*
X116560881Y-156948095D01*
X116560881Y-156567142D01*
X116608500Y-156471904D01*
X116656119Y-156424285D01*
X116751357Y-156376666D01*
X116894214Y-156376666D01*
X116989452Y-156424285D01*
X117037071Y-156471904D01*
X117084690Y-156567142D01*
X117084690Y-156948095D01*
X117560881Y-155900476D02*
X117560881Y-155710000D01*
X117513262Y-155614761D01*
X117465643Y-155567142D01*
X117322786Y-155471904D01*
X117132310Y-155424285D01*
X116751357Y-155424285D01*
X116656119Y-155471904D01*
X116608500Y-155519523D01*
X116560881Y-155614761D01*
X116560881Y-155805238D01*
X116608500Y-155900476D01*
X116656119Y-155948095D01*
X116751357Y-155995714D01*
X116989452Y-155995714D01*
X117084690Y-155948095D01*
X117132310Y-155900476D01*
X117179929Y-155805238D01*
X117179929Y-155614761D01*
X117132310Y-155519523D01*
X117084690Y-155471904D01*
X116989452Y-155424285D01*
X148657762Y-118109905D02*
X148705381Y-117967048D01*
X148705381Y-117728952D01*
X148657762Y-117633714D01*
X148610143Y-117586095D01*
X148514905Y-117538476D01*
X148419667Y-117538476D01*
X148324429Y-117586095D01*
X148276810Y-117633714D01*
X148229190Y-117728952D01*
X148181571Y-117919429D01*
X148133952Y-118014667D01*
X148086333Y-118062286D01*
X147991095Y-118109905D01*
X147895857Y-118109905D01*
X147800619Y-118062286D01*
X147753000Y-118014667D01*
X147705381Y-117919429D01*
X147705381Y-117681333D01*
X147753000Y-117538476D01*
X148705381Y-116586095D02*
X148705381Y-117157524D01*
X148705381Y-116871810D02*
X147705381Y-116871810D01*
X147848238Y-116967048D01*
X147943476Y-117062286D01*
X147991095Y-117157524D01*
X121899762Y-111505905D02*
X121947381Y-111363048D01*
X121947381Y-111124952D01*
X121899762Y-111029714D01*
X121852143Y-110982095D01*
X121756905Y-110934476D01*
X121661667Y-110934476D01*
X121566429Y-110982095D01*
X121518810Y-111029714D01*
X121471190Y-111124952D01*
X121423571Y-111315429D01*
X121375952Y-111410667D01*
X121328333Y-111458286D01*
X121233095Y-111505905D01*
X121137857Y-111505905D01*
X121042619Y-111458286D01*
X120995000Y-111410667D01*
X120947381Y-111315429D01*
X120947381Y-111077333D01*
X120995000Y-110934476D01*
X120947381Y-110601143D02*
X120947381Y-109982095D01*
X121328333Y-110315429D01*
X121328333Y-110172571D01*
X121375952Y-110077333D01*
X121423571Y-110029714D01*
X121518810Y-109982095D01*
X121756905Y-109982095D01*
X121852143Y-110029714D01*
X121899762Y-110077333D01*
X121947381Y-110172571D01*
X121947381Y-110458286D01*
X121899762Y-110553524D01*
X121852143Y-110601143D01*
X112776095Y-108310762D02*
X112918952Y-108358381D01*
X113157048Y-108358381D01*
X113252286Y-108310762D01*
X113299905Y-108263143D01*
X113347524Y-108167905D01*
X113347524Y-108072667D01*
X113299905Y-107977429D01*
X113252286Y-107929810D01*
X113157048Y-107882190D01*
X112966571Y-107834571D01*
X112871333Y-107786952D01*
X112823714Y-107739333D01*
X112776095Y-107644095D01*
X112776095Y-107548857D01*
X112823714Y-107453619D01*
X112871333Y-107406000D01*
X112966571Y-107358381D01*
X113204667Y-107358381D01*
X113347524Y-107406000D01*
X114204667Y-107691714D02*
X114204667Y-108358381D01*
X113966571Y-107310762D02*
X113728476Y-108025048D01*
X114347524Y-108025048D01*
X118300595Y-161440762D02*
X118443452Y-161488381D01*
X118681548Y-161488381D01*
X118776786Y-161440762D01*
X118824405Y-161393143D01*
X118872024Y-161297905D01*
X118872024Y-161202667D01*
X118824405Y-161107429D01*
X118776786Y-161059810D01*
X118681548Y-161012190D01*
X118491071Y-160964571D01*
X118395833Y-160916952D01*
X118348214Y-160869333D01*
X118300595Y-160774095D01*
X118300595Y-160678857D01*
X118348214Y-160583619D01*
X118395833Y-160536000D01*
X118491071Y-160488381D01*
X118729167Y-160488381D01*
X118872024Y-160536000D01*
X119776786Y-160488381D02*
X119300595Y-160488381D01*
X119252976Y-160964571D01*
X119300595Y-160916952D01*
X119395833Y-160869333D01*
X119633929Y-160869333D01*
X119729167Y-160916952D01*
X119776786Y-160964571D01*
X119824405Y-161059810D01*
X119824405Y-161297905D01*
X119776786Y-161393143D01*
X119729167Y-161440762D01*
X119633929Y-161488381D01*
X119395833Y-161488381D01*
X119300595Y-161440762D01*
X119252976Y-161393143D01*
X154305095Y-125369381D02*
X154305095Y-126178905D01*
X154352714Y-126274143D01*
X154400333Y-126321762D01*
X154495571Y-126369381D01*
X154686048Y-126369381D01*
X154781286Y-126321762D01*
X154828905Y-126274143D01*
X154876524Y-126178905D01*
X154876524Y-125369381D01*
X155257476Y-125369381D02*
X155876524Y-125369381D01*
X155543190Y-125750333D01*
X155686048Y-125750333D01*
X155781286Y-125797952D01*
X155828905Y-125845571D01*
X155876524Y-125940810D01*
X155876524Y-126178905D01*
X155828905Y-126274143D01*
X155781286Y-126321762D01*
X155686048Y-126369381D01*
X155400333Y-126369381D01*
X155305095Y-126321762D01*
X155257476Y-126274143D01*
X153527167Y-155471881D02*
X153527167Y-156186167D01*
X153479547Y-156329024D01*
X153384309Y-156424262D01*
X153241452Y-156471881D01*
X153146214Y-156471881D01*
X154527167Y-156471881D02*
X153955738Y-156471881D01*
X154241452Y-156471881D02*
X154241452Y-155471881D01*
X154146214Y-155614738D01*
X154050976Y-155709976D01*
X153955738Y-155757595D01*
X140001667Y-156043381D02*
X140001667Y-156757667D01*
X139954047Y-156900524D01*
X139858809Y-156995762D01*
X139715952Y-157043381D01*
X139620714Y-157043381D01*
X140430238Y-156138619D02*
X140477857Y-156091000D01*
X140573095Y-156043381D01*
X140811191Y-156043381D01*
X140906429Y-156091000D01*
X140954048Y-156138619D01*
X141001667Y-156233857D01*
X141001667Y-156329095D01*
X140954048Y-156471952D01*
X140382619Y-157043381D01*
X141001667Y-157043381D01*
X155599167Y-158011762D02*
X155742024Y-158059381D01*
X155980120Y-158059381D01*
X156075358Y-158011762D01*
X156122977Y-157964143D01*
X156170596Y-157868905D01*
X156170596Y-157773667D01*
X156122977Y-157678429D01*
X156075358Y-157630810D01*
X155980120Y-157583190D01*
X155789643Y-157535571D01*
X155694405Y-157487952D01*
X155646786Y-157440333D01*
X155599167Y-157345095D01*
X155599167Y-157249857D01*
X155646786Y-157154619D01*
X155694405Y-157107000D01*
X155789643Y-157059381D01*
X156027739Y-157059381D01*
X156170596Y-157107000D01*
X157170596Y-157964143D02*
X157122977Y-158011762D01*
X156980120Y-158059381D01*
X156884882Y-158059381D01*
X156742024Y-158011762D01*
X156646786Y-157916524D01*
X156599167Y-157821286D01*
X156551548Y-157630810D01*
X156551548Y-157487952D01*
X156599167Y-157297476D01*
X156646786Y-157202238D01*
X156742024Y-157107000D01*
X156884882Y-157059381D01*
X156980120Y-157059381D01*
X157122977Y-157107000D01*
X157170596Y-157154619D01*
X157599167Y-158059381D02*
X157599167Y-157059381D01*
X158170596Y-158059381D01*
X158170596Y-157059381D01*
X159170596Y-157107000D02*
X159075358Y-157059381D01*
X158932501Y-157059381D01*
X158789643Y-157107000D01*
X158694405Y-157202238D01*
X158646786Y-157297476D01*
X158599167Y-157487952D01*
X158599167Y-157630810D01*
X158646786Y-157821286D01*
X158694405Y-157916524D01*
X158789643Y-158011762D01*
X158932501Y-158059381D01*
X159027739Y-158059381D01*
X159170596Y-158011762D01*
X159218215Y-157964143D01*
X159218215Y-157630810D01*
X159027739Y-157630810D01*
X159646786Y-158059381D02*
X159646786Y-157059381D01*
X160218215Y-158059381D01*
X160218215Y-157059381D01*
X160694405Y-158059381D02*
X160694405Y-157059381D01*
X160932500Y-157059381D01*
X161075358Y-157107000D01*
X161170596Y-157202238D01*
X161218215Y-157297476D01*
X161265834Y-157487952D01*
X161265834Y-157630810D01*
X161218215Y-157821286D01*
X161170596Y-157916524D01*
X161075358Y-158011762D01*
X160932500Y-158059381D01*
X160694405Y-158059381D01*
X126246096Y-152503143D02*
X126198477Y-152550762D01*
X126055620Y-152598381D01*
X125960382Y-152598381D01*
X125817524Y-152550762D01*
X125722286Y-152455524D01*
X125674667Y-152360286D01*
X125627048Y-152169810D01*
X125627048Y-152026952D01*
X125674667Y-151836476D01*
X125722286Y-151741238D01*
X125817524Y-151646000D01*
X125960382Y-151598381D01*
X126055620Y-151598381D01*
X126198477Y-151646000D01*
X126246096Y-151693619D01*
X126865143Y-151598381D02*
X127055620Y-151598381D01*
X127150858Y-151646000D01*
X127246096Y-151741238D01*
X127293715Y-151931714D01*
X127293715Y-152265048D01*
X127246096Y-152455524D01*
X127150858Y-152550762D01*
X127055620Y-152598381D01*
X126865143Y-152598381D01*
X126769905Y-152550762D01*
X126674667Y-152455524D01*
X126627048Y-152265048D01*
X126627048Y-151931714D01*
X126674667Y-151741238D01*
X126769905Y-151646000D01*
X126865143Y-151598381D01*
X127722286Y-152598381D02*
X127722286Y-151598381D01*
X128293715Y-152598381D01*
X128293715Y-151598381D01*
X128769905Y-152598381D02*
X128769905Y-151598381D01*
X129341334Y-152598381D01*
X129341334Y-151598381D01*
X132310357Y-152598381D02*
X132310357Y-151598381D01*
X132786547Y-152598381D02*
X132786547Y-151598381D01*
X133024642Y-151598381D01*
X133167500Y-151646000D01*
X133262738Y-151741238D01*
X133310357Y-151836476D01*
X133357976Y-152026952D01*
X133357976Y-152169810D01*
X133310357Y-152360286D01*
X133262738Y-152455524D01*
X133167500Y-152550762D01*
X133024642Y-152598381D01*
X132786547Y-152598381D01*
X134262738Y-152598381D02*
X133786547Y-152598381D01*
X133786547Y-151598381D01*
X134596071Y-152074571D02*
X134929405Y-152074571D01*
X135072262Y-152598381D02*
X134596071Y-152598381D01*
X134596071Y-151598381D01*
X135072262Y-151598381D01*
X138938095Y-151598381D02*
X139509524Y-151598381D01*
X139223809Y-152598381D02*
X139223809Y-151598381D01*
X139747619Y-151598381D02*
X140414286Y-152598381D01*
X140414286Y-151598381D02*
X139747619Y-152598381D01*
X92646595Y-160996262D02*
X92789452Y-161043881D01*
X93027548Y-161043881D01*
X93122786Y-160996262D01*
X93170405Y-160948643D01*
X93218024Y-160853405D01*
X93218024Y-160758167D01*
X93170405Y-160662929D01*
X93122786Y-160615310D01*
X93027548Y-160567690D01*
X92837071Y-160520071D01*
X92741833Y-160472452D01*
X92694214Y-160424833D01*
X92646595Y-160329595D01*
X92646595Y-160234357D01*
X92694214Y-160139119D01*
X92741833Y-160091500D01*
X92837071Y-160043881D01*
X93075167Y-160043881D01*
X93218024Y-160091500D01*
X93598976Y-160139119D02*
X93646595Y-160091500D01*
X93741833Y-160043881D01*
X93979929Y-160043881D01*
X94075167Y-160091500D01*
X94122786Y-160139119D01*
X94170405Y-160234357D01*
X94170405Y-160329595D01*
X94122786Y-160472452D01*
X93551357Y-161043881D01*
X94170405Y-161043881D01*
D16*
G36*
X109220000Y-113220500D02*
X83502500Y-113220500D01*
X83502500Y-109410500D01*
X109220000Y-109410500D01*
X109220000Y-113220500D01*
X109220000Y-113220500D01*
G37*
X109220000Y-113220500D02*
X83502500Y-113220500D01*
X83502500Y-109410500D01*
X109220000Y-109410500D01*
X109220000Y-113220500D01*
M02*
