G04 #@! TF.FileFunction,Soldermask,Top*
%FSLAX46Y46*%
G04 Gerber Fmt 4.6, Leading zero omitted, Abs format (unit mm)*
G04 Created by KiCad (PCBNEW 4.0.7) date 07/17/19 22:20:44*
%MOMM*%
%LPD*%
G01*
G04 APERTURE LIST*
%ADD10C,0.100000*%
%ADD11R,1.500000X2.900000*%
%ADD12O,1.500000X2.900000*%
%ADD13R,2.400000X2.000000*%
%ADD14R,1.900000X1.650000*%
%ADD15R,1.650000X1.900000*%
%ADD16R,1.900000X1.700000*%
%ADD17R,0.960000X2.000000*%
%ADD18R,2.000000X0.960000*%
%ADD19R,2.100000X2.100000*%
%ADD20O,2.100000X2.100000*%
%ADD21R,2.000000X2.000000*%
%ADD22C,2.000000*%
%ADD23R,1.700000X1.900000*%
%ADD24R,2.100000X2.900000*%
%ADD25O,2.100000X2.900000*%
%ADD26R,2.200000X2.200000*%
%ADD27C,2.200000*%
%ADD28C,1.920000*%
%ADD29C,3.400000*%
G04 APERTURE END LIST*
D10*
D11*
X86487000Y-143956000D03*
D12*
X88487000Y-143956000D03*
X90487000Y-143956000D03*
X92487000Y-143956000D03*
X94487000Y-143956000D03*
X96487000Y-143956000D03*
X98487000Y-143956000D03*
X100487000Y-143956000D03*
X100487000Y-128556000D03*
X98487000Y-128656000D03*
X96487000Y-128556000D03*
X94487000Y-128556000D03*
X92487000Y-128556000D03*
X90487000Y-128556000D03*
X88487000Y-128556000D03*
X86487000Y-128556000D03*
D13*
X115919000Y-123952000D03*
X111919000Y-123952000D03*
D14*
X134132000Y-129921000D03*
X136632000Y-129921000D03*
X114407000Y-126746000D03*
X111907000Y-126746000D03*
X105684000Y-143002000D03*
X108184000Y-143002000D03*
D13*
X113443000Y-143256000D03*
X117443000Y-143256000D03*
D14*
X154325000Y-147828000D03*
X156825000Y-147828000D03*
D15*
X156337000Y-120924000D03*
X156337000Y-123424000D03*
D16*
X136605000Y-132969000D03*
X133905000Y-132969000D03*
X108538000Y-139065000D03*
X105838000Y-139065000D03*
X105838000Y-135382000D03*
X108538000Y-135382000D03*
X105838000Y-131953000D03*
X108538000Y-131953000D03*
X105711000Y-128524000D03*
X108411000Y-128524000D03*
X138286500Y-145161000D03*
X140986500Y-145161000D03*
D17*
X119190000Y-139454000D03*
X119990000Y-139454000D03*
X120790000Y-139454000D03*
X121590000Y-139454000D03*
X122390000Y-139454000D03*
X123190000Y-139454000D03*
X123990000Y-139454000D03*
X124790000Y-139454000D03*
X125590000Y-139454000D03*
X126390000Y-139454000D03*
X127190000Y-139454000D03*
D18*
X129040000Y-137604000D03*
X129040000Y-136804000D03*
X129040000Y-136004000D03*
X129040000Y-135204000D03*
X129040000Y-134404000D03*
X129040000Y-133604000D03*
X129040000Y-132804000D03*
X129040000Y-132004000D03*
X129040000Y-131204000D03*
X129040000Y-130404000D03*
X129040000Y-129604000D03*
D17*
X127190000Y-127754000D03*
X126390000Y-127754000D03*
X125590000Y-127754000D03*
X124790000Y-127754000D03*
X123990000Y-127754000D03*
X123190000Y-127754000D03*
X122390000Y-127754000D03*
X121590000Y-127754000D03*
X120790000Y-127754000D03*
X119990000Y-127754000D03*
X119190000Y-127754000D03*
D18*
X117340000Y-129604000D03*
X117340000Y-130404000D03*
X117340000Y-131204000D03*
X117340000Y-132004000D03*
X117340000Y-132804000D03*
X117340000Y-133604000D03*
X117340000Y-134404000D03*
X117340000Y-135204000D03*
X117340000Y-136004000D03*
X117340000Y-136804000D03*
X117340000Y-137604000D03*
D19*
X105283000Y-116332000D03*
D20*
X107823000Y-116332000D03*
X105283000Y-118872000D03*
X107823000Y-118872000D03*
X105283000Y-121412000D03*
X107823000Y-121412000D03*
X105283000Y-123952000D03*
X107823000Y-123952000D03*
D19*
X139573000Y-127381000D03*
D20*
X139573000Y-129921000D03*
X139573000Y-132461000D03*
X139573000Y-135001000D03*
X139573000Y-137541000D03*
D21*
X153924000Y-142494000D03*
D22*
X156424000Y-142494000D03*
D21*
X151320500Y-120904000D03*
D22*
X151320500Y-122904000D03*
D16*
X126094500Y-145224500D03*
X128794500Y-145224500D03*
X132190500Y-145161000D03*
X134890500Y-145161000D03*
X122411500Y-154876500D03*
X125111500Y-154876500D03*
D23*
X118808500Y-157560000D03*
X118808500Y-154860000D03*
D19*
X145923000Y-117348000D03*
D20*
X143383000Y-117348000D03*
X140843000Y-117348000D03*
X138303000Y-117348000D03*
D19*
X123825000Y-110744000D03*
D20*
X126365000Y-110744000D03*
X128905000Y-110744000D03*
X131445000Y-110744000D03*
D19*
X112268000Y-110236000D03*
D20*
X114808000Y-110236000D03*
D19*
X122555000Y-159956500D03*
D20*
X125095000Y-159956500D03*
D24*
X152527000Y-133477000D03*
D25*
X155067000Y-133477000D03*
X157607000Y-133477000D03*
D22*
X150741000Y-155567000D03*
X150741000Y-160567000D03*
X152741000Y-159067000D03*
X136707500Y-155567000D03*
X136707500Y-160567000D03*
X138707500Y-159067000D03*
D19*
X158369000Y-154749500D03*
D26*
X126238000Y-149225000D03*
D27*
X128778000Y-149225000D03*
D26*
X132334000Y-149225000D03*
D27*
X134874000Y-149225000D03*
D26*
X138430000Y-149225000D03*
D27*
X140970000Y-149225000D03*
D28*
X104536500Y-154535500D03*
X102536500Y-154535500D03*
X106536500Y-154535500D03*
X101536500Y-157035500D03*
X103536500Y-157035500D03*
X105536500Y-157035500D03*
D29*
X110036500Y-159035500D03*
X97976500Y-159065500D03*
M02*
