M48
;DRILL file {KiCad 4.0.7} date 07/17/19 22:20:41
;FORMAT={-:-/ absolute / metric / decimal}
FMAT,2
METRIC,TZ
T1C0.500
T2C0.800
T3C0.810
T4C0.900
T5C1.000
T6C1.200
T7C2.200
%
G90
G05
M71
T1
X86.487Y-139.954
X99.949Y-151.066
X110.109Y-137.033
X119.38Y-124.206
X122.428Y-121.031
X123.825Y-120.269
X143.446Y-122.555
X145.796Y-142.558
T2
X151.32Y-120.904
X151.32Y-122.904
X153.924Y-142.494
X156.424Y-142.494
T3
X101.536Y-157.035
X102.536Y-154.535
X103.536Y-157.035
X104.536Y-154.535
X105.536Y-157.035
X106.536Y-154.535
T4
X126.238Y-149.225
X128.778Y-149.225
X132.334Y-149.225
X134.874Y-149.225
X138.43Y-149.225
X140.97Y-149.225
T5
X105.283Y-116.332
X105.283Y-118.872
X105.283Y-121.412
X105.283Y-123.952
X107.823Y-116.332
X107.823Y-118.872
X107.823Y-121.412
X107.823Y-123.952
X112.268Y-110.236
X114.808Y-110.236
X122.555Y-159.957
X123.825Y-110.744
X125.095Y-159.957
X126.365Y-110.744
X128.905Y-110.744
X131.445Y-110.744
X136.707Y-155.567
X136.707Y-160.567
X138.303Y-117.348
X138.707Y-159.067
X139.573Y-127.381
X139.573Y-129.921
X139.573Y-132.461
X139.573Y-135.001
X139.573Y-137.541
X140.843Y-117.348
X143.383Y-117.348
X145.923Y-117.348
X150.741Y-155.567
X150.741Y-160.567
X152.741Y-159.067
X158.369Y-154.749
T6
X152.527Y-133.477
X155.067Y-133.477
X157.607Y-133.477
T7
X97.977Y-159.065
X110.036Y-159.035
T0
M30
