G04 #@! TF.FileFunction,Copper,L1,Top,Signal*
%FSLAX46Y46*%
G04 Gerber Fmt 4.6, Leading zero omitted, Abs format (unit mm)*
G04 Created by KiCad (PCBNEW 4.0.7) date 07/17/19 22:20:44*
%MOMM*%
%LPD*%
G01*
G04 APERTURE LIST*
%ADD10C,0.100000*%
%ADD11C,0.300000*%
%ADD12R,1.100000X2.500000*%
%ADD13O,1.100000X2.500000*%
%ADD14R,2.000000X1.600000*%
%ADD15R,1.500000X1.250000*%
%ADD16R,1.250000X1.500000*%
%ADD17R,1.500000X1.300000*%
%ADD18R,0.560000X1.600000*%
%ADD19R,1.600000X0.560000*%
%ADD20R,1.700000X1.700000*%
%ADD21O,1.700000X1.700000*%
%ADD22R,1.600000X1.600000*%
%ADD23C,1.600000*%
%ADD24R,1.300000X1.500000*%
%ADD25R,1.700000X2.500000*%
%ADD26O,1.700000X2.500000*%
%ADD27R,1.800000X1.800000*%
%ADD28C,1.800000*%
%ADD29C,1.520000*%
%ADD30C,3.000000*%
%ADD31C,0.900000*%
%ADD32C,1.200000*%
%ADD33C,0.500000*%
%ADD34C,0.800000*%
%ADD35C,0.250000*%
G04 APERTURE END LIST*
D10*
D11*
X157992214Y-162119571D02*
X158849357Y-162119571D01*
X158420786Y-163619571D02*
X158420786Y-162119571D01*
X159635071Y-162119571D02*
X159920785Y-162119571D01*
X160063643Y-162191000D01*
X160206500Y-162333857D01*
X160277928Y-162619571D01*
X160277928Y-163119571D01*
X160206500Y-163405286D01*
X160063643Y-163548143D01*
X159920785Y-163619571D01*
X159635071Y-163619571D01*
X159492214Y-163548143D01*
X159349357Y-163405286D01*
X159277928Y-163119571D01*
X159277928Y-162619571D01*
X159349357Y-162333857D01*
X159492214Y-162191000D01*
X159635071Y-162119571D01*
X160920786Y-163619571D02*
X160920786Y-162119571D01*
X161492214Y-162119571D01*
X161635072Y-162191000D01*
X161706500Y-162262429D01*
X161777929Y-162405286D01*
X161777929Y-162619571D01*
X161706500Y-162762429D01*
X161635072Y-162833857D01*
X161492214Y-162905286D01*
X160920786Y-162905286D01*
D12*
X86487000Y-143956000D03*
D13*
X88487000Y-143956000D03*
X90487000Y-143956000D03*
X92487000Y-143956000D03*
X94487000Y-143956000D03*
X96487000Y-143956000D03*
X98487000Y-143956000D03*
X100487000Y-143956000D03*
X100487000Y-128556000D03*
X98487000Y-128656000D03*
X96487000Y-128556000D03*
X94487000Y-128556000D03*
X92487000Y-128556000D03*
X90487000Y-128556000D03*
X88487000Y-128556000D03*
X86487000Y-128556000D03*
D14*
X115919000Y-123952000D03*
X111919000Y-123952000D03*
D15*
X134132000Y-129921000D03*
X136632000Y-129921000D03*
X114407000Y-126746000D03*
X111907000Y-126746000D03*
X105684000Y-143002000D03*
X108184000Y-143002000D03*
D14*
X113443000Y-143256000D03*
X117443000Y-143256000D03*
D15*
X154325000Y-147828000D03*
X156825000Y-147828000D03*
D16*
X156337000Y-120924000D03*
X156337000Y-123424000D03*
D17*
X136605000Y-132969000D03*
X133905000Y-132969000D03*
X108538000Y-139065000D03*
X105838000Y-139065000D03*
X105838000Y-135382000D03*
X108538000Y-135382000D03*
X105838000Y-131953000D03*
X108538000Y-131953000D03*
X105711000Y-128524000D03*
X108411000Y-128524000D03*
X138286500Y-145161000D03*
X140986500Y-145161000D03*
D18*
X119190000Y-139454000D03*
X119990000Y-139454000D03*
X120790000Y-139454000D03*
X121590000Y-139454000D03*
X122390000Y-139454000D03*
X123190000Y-139454000D03*
X123990000Y-139454000D03*
X124790000Y-139454000D03*
X125590000Y-139454000D03*
X126390000Y-139454000D03*
X127190000Y-139454000D03*
D19*
X129040000Y-137604000D03*
X129040000Y-136804000D03*
X129040000Y-136004000D03*
X129040000Y-135204000D03*
X129040000Y-134404000D03*
X129040000Y-133604000D03*
X129040000Y-132804000D03*
X129040000Y-132004000D03*
X129040000Y-131204000D03*
X129040000Y-130404000D03*
X129040000Y-129604000D03*
D18*
X127190000Y-127754000D03*
X126390000Y-127754000D03*
X125590000Y-127754000D03*
X124790000Y-127754000D03*
X123990000Y-127754000D03*
X123190000Y-127754000D03*
X122390000Y-127754000D03*
X121590000Y-127754000D03*
X120790000Y-127754000D03*
X119990000Y-127754000D03*
X119190000Y-127754000D03*
D19*
X117340000Y-129604000D03*
X117340000Y-130404000D03*
X117340000Y-131204000D03*
X117340000Y-132004000D03*
X117340000Y-132804000D03*
X117340000Y-133604000D03*
X117340000Y-134404000D03*
X117340000Y-135204000D03*
X117340000Y-136004000D03*
X117340000Y-136804000D03*
X117340000Y-137604000D03*
D20*
X105283000Y-116332000D03*
D21*
X107823000Y-116332000D03*
X105283000Y-118872000D03*
X107823000Y-118872000D03*
X105283000Y-121412000D03*
X107823000Y-121412000D03*
X105283000Y-123952000D03*
X107823000Y-123952000D03*
D20*
X139573000Y-127381000D03*
D21*
X139573000Y-129921000D03*
X139573000Y-132461000D03*
X139573000Y-135001000D03*
X139573000Y-137541000D03*
D22*
X153924000Y-142494000D03*
D23*
X156424000Y-142494000D03*
D22*
X151320500Y-120904000D03*
D23*
X151320500Y-122904000D03*
D17*
X126094500Y-145224500D03*
X128794500Y-145224500D03*
X132190500Y-145161000D03*
X134890500Y-145161000D03*
X122411500Y-154876500D03*
X125111500Y-154876500D03*
D24*
X118808500Y-157560000D03*
X118808500Y-154860000D03*
D20*
X145923000Y-117348000D03*
D21*
X143383000Y-117348000D03*
X140843000Y-117348000D03*
X138303000Y-117348000D03*
D20*
X123825000Y-110744000D03*
D21*
X126365000Y-110744000D03*
X128905000Y-110744000D03*
X131445000Y-110744000D03*
D20*
X112268000Y-110236000D03*
D21*
X114808000Y-110236000D03*
D20*
X122555000Y-159956500D03*
D21*
X125095000Y-159956500D03*
D25*
X152527000Y-133477000D03*
D26*
X155067000Y-133477000D03*
X157607000Y-133477000D03*
D23*
X150741000Y-155567000D03*
X150741000Y-160567000D03*
X152741000Y-159067000D03*
X136707500Y-155567000D03*
X136707500Y-160567000D03*
X138707500Y-159067000D03*
D20*
X158369000Y-154749500D03*
D27*
X126238000Y-149225000D03*
D28*
X128778000Y-149225000D03*
D27*
X132334000Y-149225000D03*
D28*
X134874000Y-149225000D03*
D27*
X138430000Y-149225000D03*
D28*
X140970000Y-149225000D03*
D29*
X104536500Y-154535500D03*
X102536500Y-154535500D03*
X106536500Y-154535500D03*
X101536500Y-157035500D03*
X103536500Y-157035500D03*
X105536500Y-157035500D03*
D30*
X110036500Y-159035500D03*
X97976500Y-159065500D03*
D31*
X143446500Y-122555000D03*
X99949000Y-151066500D03*
X145796000Y-142557500D03*
D32*
X119380000Y-124206000D03*
D31*
X123825000Y-120269000D03*
X122428000Y-121031000D03*
D32*
X110109000Y-137033000D03*
X86487000Y-139954000D03*
D33*
X119190000Y-127754000D02*
X119190000Y-125667000D01*
X117475000Y-123952000D02*
X115919000Y-123952000D01*
X119190000Y-125667000D02*
X117475000Y-123952000D01*
D34*
X158369000Y-154749500D02*
X158369000Y-149372000D01*
X158369000Y-149372000D02*
X156825000Y-147828000D01*
X117443000Y-143256000D02*
X117443000Y-144494500D01*
X109537500Y-143002000D02*
X108184000Y-143002000D01*
X112077500Y-145542000D02*
X109537500Y-143002000D01*
X116395500Y-145542000D02*
X112077500Y-145542000D01*
X117443000Y-144494500D02*
X116395500Y-145542000D01*
X155067000Y-133477000D02*
X155067000Y-124079000D01*
X155067000Y-124079000D02*
X154412000Y-123424000D01*
X151320500Y-122904000D02*
X151320500Y-123126500D01*
X151320500Y-123126500D02*
X151618000Y-123424000D01*
X151618000Y-123424000D02*
X154412000Y-123424000D01*
X154412000Y-123424000D02*
X156337000Y-123424000D01*
D33*
X122555000Y-159956500D02*
X120269000Y-159956500D01*
X118808500Y-158496000D02*
X118808500Y-157560000D01*
X120269000Y-159956500D02*
X118808500Y-158496000D01*
D34*
X143383000Y-117348000D02*
X143383000Y-115506500D01*
X138620500Y-110744000D02*
X131445000Y-110744000D01*
X143383000Y-115506500D02*
X138620500Y-110744000D01*
D33*
X111919000Y-123952000D02*
X111919000Y-110585000D01*
X111919000Y-110585000D02*
X112268000Y-110236000D01*
D34*
X143383000Y-122491500D02*
X143446500Y-122555000D01*
X143383000Y-117348000D02*
X143383000Y-122491500D01*
X139573000Y-129921000D02*
X154940000Y-129921000D01*
X155067000Y-130048000D02*
X155067000Y-133477000D01*
X154940000Y-129921000D02*
X155067000Y-130048000D01*
X155067000Y-133477000D02*
X155067000Y-137414000D01*
X155067000Y-137414000D02*
X156424000Y-138771000D01*
X156424000Y-138771000D02*
X156424000Y-142494000D01*
D33*
X117861000Y-143674000D02*
X117443000Y-143256000D01*
X117340000Y-131204000D02*
X113678000Y-131204000D01*
X111907000Y-129433000D02*
X111907000Y-126746000D01*
X113678000Y-131204000D02*
X111907000Y-129433000D01*
D34*
X111919000Y-123952000D02*
X111919000Y-126734000D01*
X111919000Y-126734000D02*
X111907000Y-126746000D01*
X111919000Y-123952000D02*
X107823000Y-123952000D01*
X108411000Y-126873000D02*
X108331000Y-126873000D01*
X108331000Y-126873000D02*
X108411000Y-126873000D01*
D33*
X119190000Y-139454000D02*
X119190000Y-142494000D01*
X119190000Y-142494000D02*
X119190000Y-142938000D01*
X118872000Y-143256000D02*
X117443000Y-143256000D01*
X119190000Y-142938000D02*
X118872000Y-143256000D01*
X119190000Y-139454000D02*
X119190000Y-131204000D01*
X119126000Y-131318000D02*
X119126000Y-131204000D01*
X119126000Y-131268000D02*
X119126000Y-131318000D01*
X119190000Y-131204000D02*
X119126000Y-131268000D01*
X117340000Y-131204000D02*
X119126000Y-131204000D01*
X119126000Y-131204000D02*
X122822000Y-131204000D01*
X126390000Y-134772000D02*
X126390000Y-139454000D01*
X122822000Y-131204000D02*
X126390000Y-134772000D01*
D34*
X108411000Y-128524000D02*
X108411000Y-126873000D01*
X108411000Y-126873000D02*
X108411000Y-124540000D01*
X108411000Y-124540000D02*
X107823000Y-123952000D01*
X105283000Y-123952000D02*
X107823000Y-123952000D01*
X100487000Y-129256000D02*
X100487000Y-125319000D01*
X101854000Y-123952000D02*
X105283000Y-123952000D01*
X100487000Y-125319000D02*
X101854000Y-123952000D01*
X156825000Y-147828000D02*
X156825000Y-142895000D01*
X156825000Y-142895000D02*
X156424000Y-142494000D01*
X136632000Y-129921000D02*
X139573000Y-129921000D01*
X99568000Y-150685500D02*
X99568000Y-147193000D01*
X99949000Y-151066500D02*
X99568000Y-150685500D01*
X157607000Y-133477000D02*
X157607000Y-128270000D01*
X158198500Y-120924000D02*
X156337000Y-120924000D01*
X158813500Y-121539000D02*
X158198500Y-120924000D01*
X158813500Y-127063500D02*
X158813500Y-121539000D01*
X157607000Y-128270000D02*
X158813500Y-127063500D01*
X156337000Y-120924000D02*
X151340500Y-120924000D01*
X151340500Y-120924000D02*
X151320500Y-120904000D01*
X132190500Y-145161000D02*
X132190500Y-142795000D01*
X132190500Y-142795000D02*
X131953000Y-142557500D01*
X126094500Y-145224500D02*
X126094500Y-144415500D01*
X127952500Y-142557500D02*
X131953000Y-142557500D01*
X131953000Y-142557500D02*
X138430000Y-142557500D01*
X126094500Y-144415500D02*
X127952500Y-142557500D01*
X138430000Y-142557500D02*
X138430000Y-145017500D01*
X138430000Y-145017500D02*
X138286500Y-145161000D01*
X138430000Y-142557500D02*
X145796000Y-142557500D01*
D33*
X108538000Y-137287000D02*
X84201000Y-137287000D01*
X84328000Y-137033000D02*
X84201000Y-137033000D01*
X84328000Y-137160000D02*
X84328000Y-137033000D01*
X84201000Y-137287000D02*
X84328000Y-137160000D01*
D34*
X105283000Y-116332000D02*
X91440000Y-116332000D01*
X91440000Y-116332000D02*
X84201000Y-123571000D01*
X84201000Y-123571000D02*
X84201000Y-137033000D01*
X100487000Y-146274000D02*
X100487000Y-143256000D01*
X84201000Y-137033000D02*
X84201000Y-145415000D01*
X84201000Y-145415000D02*
X85979000Y-147193000D01*
X85979000Y-147193000D02*
X99568000Y-147193000D01*
X99568000Y-147193000D02*
X100487000Y-146274000D01*
D33*
X133905000Y-132969000D02*
X133905000Y-130148000D01*
X133905000Y-130148000D02*
X134132000Y-129921000D01*
X117340000Y-129604000D02*
X116015000Y-129604000D01*
X115443000Y-129032000D02*
X114407000Y-129032000D01*
X116015000Y-129604000D02*
X115443000Y-129032000D01*
X114407000Y-129032000D02*
X114554000Y-129032000D01*
X114554000Y-129032000D02*
X114407000Y-129032000D01*
X117340000Y-130404000D02*
X115164000Y-130404000D01*
X115164000Y-130404000D02*
X114407000Y-129647000D01*
X114407000Y-129647000D02*
X114407000Y-129032000D01*
X114407000Y-129032000D02*
X114407000Y-126746000D01*
X117340000Y-129604000D02*
X118936000Y-129604000D01*
D34*
X124968000Y-129921000D02*
X127051000Y-132004000D01*
X119253000Y-129921000D02*
X124968000Y-129921000D01*
D33*
X118936000Y-129604000D02*
X119253000Y-129921000D01*
X129040000Y-132004000D02*
X127051000Y-132004000D01*
X127000000Y-132055000D02*
X127000000Y-132080000D01*
X127051000Y-132004000D02*
X127000000Y-132055000D01*
D34*
X105283000Y-116332000D02*
X107823000Y-116332000D01*
X108538000Y-135382000D02*
X108538000Y-131953000D01*
X108538000Y-139065000D02*
X108538000Y-137287000D01*
X108538000Y-137287000D02*
X108538000Y-135382000D01*
X105684000Y-143002000D02*
X100741000Y-143002000D01*
X100741000Y-143002000D02*
X100487000Y-143256000D01*
D33*
X139573000Y-127381000D02*
X135636000Y-127381000D01*
X134132000Y-128885000D02*
X134132000Y-129921000D01*
X135636000Y-127381000D02*
X134132000Y-128885000D01*
X129040000Y-132004000D02*
X132049000Y-132004000D01*
X132049000Y-132004000D02*
X134132000Y-129921000D01*
X117340000Y-137604000D02*
X115380000Y-137604000D01*
X113443000Y-139541000D02*
X113443000Y-143256000D01*
X115380000Y-137604000D02*
X113443000Y-139541000D01*
X136605000Y-132969000D02*
X139065000Y-132969000D01*
X139065000Y-132969000D02*
X139573000Y-132461000D01*
X119990000Y-124816000D02*
X119380000Y-124206000D01*
X119990000Y-124816000D02*
X119990000Y-127754000D01*
X129040000Y-136004000D02*
X134760000Y-136004000D01*
X135763000Y-135001000D02*
X139573000Y-135001000D01*
X134760000Y-136004000D02*
X135763000Y-135001000D01*
X129040000Y-136804000D02*
X134772000Y-136804000D01*
X135509000Y-137541000D02*
X139573000Y-137541000D01*
X134772000Y-136804000D02*
X135509000Y-137541000D01*
X86487000Y-129256000D02*
X86487000Y-124841000D01*
X92456000Y-118872000D02*
X105283000Y-118872000D01*
X86487000Y-124841000D02*
X92456000Y-118872000D01*
X123190000Y-127754000D02*
X123190000Y-123190000D01*
X123825000Y-122555000D02*
X123825000Y-120269000D01*
X123190000Y-123190000D02*
X123825000Y-122555000D01*
X88487000Y-129256000D02*
X88487000Y-126397000D01*
X93472000Y-121412000D02*
X105283000Y-121412000D01*
X88487000Y-126397000D02*
X93472000Y-121412000D01*
D35*
X88487000Y-129256000D02*
X88487000Y-127413000D01*
D33*
X122390000Y-127754000D02*
X122390000Y-121069000D01*
X122390000Y-121069000D02*
X122428000Y-121031000D01*
X90487000Y-143256000D02*
X90487000Y-140653000D01*
X92075000Y-139065000D02*
X105838000Y-139065000D01*
X90487000Y-140653000D02*
X92075000Y-139065000D01*
X105838000Y-135382000D02*
X97155000Y-135382000D01*
X94487000Y-132714000D02*
X94487000Y-129256000D01*
X97155000Y-135382000D02*
X94487000Y-132714000D01*
X105838000Y-131953000D02*
X103759000Y-131953000D01*
X96487000Y-131793000D02*
X96487000Y-129256000D01*
X97663000Y-132969000D02*
X96487000Y-131793000D01*
X102743000Y-132969000D02*
X97663000Y-132969000D01*
X103759000Y-131953000D02*
X102743000Y-132969000D01*
X98487000Y-129256000D02*
X98487000Y-130618000D01*
X104521000Y-128524000D02*
X105711000Y-128524000D01*
X101600000Y-131445000D02*
X104521000Y-128524000D01*
X99314000Y-131445000D02*
X101600000Y-131445000D01*
X98487000Y-130618000D02*
X99314000Y-131445000D01*
D34*
X150741000Y-155567000D02*
X150741000Y-151412000D01*
X150741000Y-151412000D02*
X154325000Y-147828000D01*
X152527000Y-133477000D02*
X152527000Y-141097000D01*
X152527000Y-141097000D02*
X153924000Y-142494000D01*
X153924000Y-142494000D02*
X153924000Y-147427000D01*
X153924000Y-147427000D02*
X154325000Y-147828000D01*
D33*
X126238000Y-149225000D02*
X125222000Y-149225000D01*
X125590000Y-142697500D02*
X124333000Y-143954500D01*
X124333000Y-143954500D02*
X124333000Y-148336000D01*
X124333000Y-148336000D02*
X125222000Y-149225000D01*
X125590000Y-142697500D02*
X125590000Y-139454000D01*
X131127500Y-151447500D02*
X131572000Y-151447500D01*
X124790000Y-142164000D02*
X123444000Y-143510000D01*
X123444000Y-143510000D02*
X123444000Y-149860000D01*
X123444000Y-149860000D02*
X125031500Y-151447500D01*
X125031500Y-151447500D02*
X131127500Y-151447500D01*
X124790000Y-139454000D02*
X124790000Y-142164000D01*
X132334000Y-150685500D02*
X132334000Y-149225000D01*
X131572000Y-151447500D02*
X132334000Y-150685500D01*
X122390000Y-139454000D02*
X122390000Y-140944500D01*
X121602500Y-154495500D02*
X121967000Y-154860000D01*
X121602500Y-141732000D02*
X121602500Y-154495500D01*
X122390000Y-140944500D02*
X121602500Y-141732000D01*
X121967000Y-154860000D02*
X122411500Y-154876500D01*
X118808500Y-154860000D02*
X122395000Y-154860000D01*
X122395000Y-154860000D02*
X122411500Y-154876500D01*
X125095000Y-159956500D02*
X125095000Y-154893000D01*
X125095000Y-154893000D02*
X125111500Y-154876500D01*
X129040000Y-131204000D02*
X131305000Y-131204000D01*
X140843000Y-120650000D02*
X140843000Y-117348000D01*
X132524500Y-128968500D02*
X140843000Y-120650000D01*
X132524500Y-129984500D02*
X132524500Y-128968500D01*
X131305000Y-131204000D02*
X132524500Y-129984500D01*
X138239500Y-117411500D02*
X138239500Y-121729500D01*
X130708000Y-130404000D02*
X131699000Y-129413000D01*
X131699000Y-129413000D02*
X131699000Y-128270000D01*
X131699000Y-128270000D02*
X138239500Y-121729500D01*
X130708000Y-130404000D02*
X129040000Y-130404000D01*
X138239500Y-117411500D02*
X138303000Y-117348000D01*
X120790000Y-139454000D02*
X120790000Y-145656000D01*
X104536500Y-151749500D02*
X104536500Y-154535500D01*
X105410000Y-150876000D02*
X104536500Y-151749500D01*
X115570000Y-150876000D02*
X105410000Y-150876000D01*
X120790000Y-145656000D02*
X115570000Y-150876000D01*
X119990000Y-139454000D02*
X119990000Y-144297000D01*
X102536500Y-151019000D02*
X102536500Y-154535500D01*
X104203500Y-149352000D02*
X102536500Y-151019000D01*
X114935000Y-149352000D02*
X104203500Y-149352000D01*
X119990000Y-144297000D02*
X114935000Y-149352000D01*
X126390000Y-127754000D02*
X126390000Y-110769000D01*
X126390000Y-110769000D02*
X126365000Y-110744000D01*
X120790000Y-127754000D02*
X120790000Y-116218000D01*
X120790000Y-116218000D02*
X114808000Y-110236000D01*
X137096500Y-152527000D02*
X137414000Y-152527000D01*
X123990000Y-141821000D02*
X122428000Y-143383000D01*
X122428000Y-143383000D02*
X122428000Y-150749000D01*
X122428000Y-150749000D02*
X124206000Y-152527000D01*
X124206000Y-152527000D02*
X137096500Y-152527000D01*
X123990000Y-139454000D02*
X123990000Y-141821000D01*
X138430000Y-151511000D02*
X138430000Y-149225000D01*
X137414000Y-152527000D02*
X138430000Y-151511000D01*
X86487000Y-143256000D02*
X86487000Y-139954000D01*
X112738000Y-134404000D02*
X117340000Y-134404000D01*
X112738000Y-134404000D02*
X110109000Y-137033000D01*
X128778000Y-149225000D02*
X128778000Y-145241000D01*
X128778000Y-145241000D02*
X128794500Y-145224500D01*
X134874000Y-149225000D02*
X134874000Y-145177500D01*
X134874000Y-145177500D02*
X134890500Y-145161000D01*
X140970000Y-149225000D02*
X140970000Y-145177500D01*
X140970000Y-145177500D02*
X140986500Y-145161000D01*
D34*
X140843000Y-145304500D02*
X140986500Y-145161000D01*
M02*
